SplineFontDB: 3.0
FontName: Bodoni-72-Bold
FullName: Bodoni* 72 Bold
FamilyName: Bodoni* 72
Weight: Bold
Copyright: Copyright (c) 2017, Owen Earl,,, (EwonRael@yahoo.com)
Version: 001.0
ItalicAngle: 0
UnderlinePosition: -408
UnderlineWidth: 204
Ascent: 3276
Descent: 820
InvalidEm: 0
LayerCount: 2
Layer: 0 0 "Back" 1
Layer: 1 0 "Fore" 0
PreferredKerning: 4
XUID: [1021 31 -699969567 16487490]
FSType: 0
OS2Version: 0
OS2_WeightWidthSlopeOnly: 0
OS2_UseTypoMetrics: 1
CreationTime: 1460762150
ModificationTime: 1573697748
PfmFamily: 17
TTFWeight: 700
TTFWidth: 5
LineGap: 0
VLineGap: 0
OS2TypoAscent: 4194
OS2TypoAOffset: 0
OS2TypoDescent: -820
OS2TypoDOffset: 0
OS2TypoLinegap: 0
OS2WinAscent: 4096
OS2WinAOffset: 0
OS2WinDescent: 1638
OS2WinDOffset: 0
HheadAscent: 4194
HheadAOffset: 0
HheadDescent: -820
HheadDOffset: 0
OS2CapHeight: 3072
OS2XHeight: 1884
OS2FamilyClass: 768
OS2Vendor: 'it* '
OS2UnicodeRanges: 00000001.00000000.00000000.00000000
Lookup: 1 0 0 "'ss02' Style Set 2 lookup 4" { "'ss02' Style Set 2 lookup 4-1"  } ['ss02' ('DFLT' <'dflt' > 'grek' <'dflt' > 'latn' <'dflt' > ) ]
Lookup: 1 0 0 "'ss03' Style Set 3 lookup 5" { "'ss03' Style Set 3 lookup 5-1"  } ['ss03' ('DFLT' <'dflt' > 'grek' <'dflt' > 'latn' <'dflt' > ) ]
Lookup: 1 0 0 "'ss01' Style Set 1 lookup 2" { "'ss01' Style Set 1 lookup 2-1"  } ['ss01' ('DFLT' <'dflt' > 'grek' <'dflt' > 'latn' <'dflt' > ) ]
Lookup: 5 0 0 "'calt' Contextual Alternates lookup 3" { "'calt' Contextual Alternates lookup 3-1"  } ['calt' ('DFLT' <'dflt' > 'grek' <'dflt' > 'latn' <'dflt' > ) ]
Lookup: 4 0 1 "'liga' Standard Ligatures lookup 0" { "'liga' Standard Ligatures lookup 0-1"  } ['liga' ('DFLT' <'dflt' > 'grek' <'dflt' > 'latn' <'dflt' > ) ]
Lookup: 258 0 0 "'kern' Horizontal Kerning lookup 0" { "kerning like they all do" [150,0,6] } ['kern' ('DFLT' <'dflt' > 'grek' <'dflt' > 'latn' <'dflt' > ) ]
MarkAttachClasses: 1
DEI: 91125
KernClass2: 31 27 "kerning like they all do"

StartChar: ampersand
Encoding: 38 38 0
GlifName: ampersand
Width: 3528
Flags: HMW
LayerCount: 2
Fore
SplineSet
1643 1924.5 m 9
 1640.5 1928.5 l 1
 1757 2007.5 1908.5 2145.5 1908.5 2611 c 0
 1908.5 2844.5 1853.5 3100 1624 3100 c 0
 1400.5 3100 1315.5 2879 1315.5 2682.5 c 0
 1315.5 2519 1437.5 2269.5 1613.5 2007.5 c 2
 2915 12 l 1
 3416 12 l 1
 3416 0 l 1
 2211.5 0 l 1
 856 2007.5 l 2
 750 2163.5 667.5 2367 667.5 2510.5 c 0
 667.5 2879 1056.5 3112.5 1634 3112.5 c 0
 2175 3112.5 2524 2917 2524 2610 c 0
 2524 2230.5 2107 2092 1643 1924.5 c 9
1108.5 1688.5 m 1
 1117.5 1684 l 1
 922 1576.5 799 1408 799 1077 c 0
 799 593.5 1061.5 75.5 1512 75.5 c 0
 2199 75.5 2841.5 922.5 2932 1884 c 1
 2945 1884 l 1
 2860.5 985.5 2276 -40.5 1163 -40.5 c 0
 515.5 -40.5 159 274.5 159 722.5 c 0
 159 1365.5 932 1607 1108.5 1688.5 c 1
2392 1884 m 1
 3374.5 1884 l 1
 3374.5 1872 l 1
 2392 1872 l 1
 2392 1884 l 1
EndSplineSet
Validated: 524293
EndChar

StartChar: period
Encoding: 46 46 1
GlifName: period
Width: 1064
Flags: HMW
LayerCount: 2
Fore
SplineSet
164 327 m 0
 164 530 330 696 533 696 c 0
 736 696 901 530 901 327 c 0
 901 124 736 -40 533 -40 c 0
 330 -40 164 124 164 327 c 0
EndSplineSet
Validated: 1
EndChar

StartChar: zero
Encoding: 48 48 2
GlifName: zero
Width: 2702
Flags: HMW
LayerCount: 2
Fore
SplineSet
1352 -40 m 0
 643 -40 164 643 164 1536 c 0
 164 2429 685 3112 1352 3112 c 0
 2019 3112 2540 2429 2540 1536 c 0
 2540 643 2061 -40 1352 -40 c 0
1352 3100 m 0
 967 3100 880 2384 880 1536 c 0
 880 688 926 -28 1352 -28 c 0
 1778 -28 1822 688 1822 1536 c 0
 1822 2384 1758 3100 1352 3100 c 0
EndSplineSet
Validated: 1
EndChar

StartChar: one
Encoding: 49 49 3
GlifName: one
Width: 2026
VWidth: 4730
Flags: HMW
LayerCount: 2
Fore
SplineSet
204 12 m 1
 1822 12 l 1
 1822 0 l 1
 204 0 l 1
 204 12 l 1
274 3072 m 1
 1372 3072 l 1
 1372 4 l 1
 738 4 l 1
 738 3060 l 1
 274 3060 l 1
 274 3072 l 1
EndSplineSet
Validated: 5
EndChar

StartChar: two
Encoding: 50 50 4
GlifName: two
Width: 2457
VWidth: 4730
Flags: HMW
LayerCount: 2
Fore
SplineSet
2315 0 m 1
 164 0 l 1
 164 409 l 1
 1038 1112 l 2
 1398 1405 1573 1723 1573 2170 c 0
 1573 2677 1377 3045 996 3045 c 0
 562 3045 207 2681 221 2226 c 1
 268 2382 399 2507 590 2507 c 0
 811 2507 975 2359 975 2154 c 0
 975 1929 779 1780 574 1780 c 0
 369 1780 204 1933 204 2248 c 0
 204 2728 586 3112 1229 3112 c 0
 1868 3112 2229 2764 2229 2334 c 0
 2229 1863 1746 1637 1442 1409 c 2
 483 614 l 1
 2302 614 l 1
 2302 922 l 1
 2315 922 l 1
 2315 0 l 1
EndSplineSet
Validated: 33
EndChar

StartChar: three
Encoding: 51 51 5
GlifName: three
Width: 2338
VWidth: 4730
Flags: HMW
LayerCount: 2
Fore
SplineSet
2175 840 m 0
 2175 287 1667 -40 1048 -40 c 0
 405 -40 102 325 102 660 c 0
 102 889 256 1039 461 1039 c 0
 645 1039 785 907 785 698 c 0
 785 505 618 368 438 368 c 0
 293 368 194 434 139 536 c 1
 182 278 465 -10 967 -10 c 0
 1414 -10 1515 393 1515 840 c 0
 1515 1205 1401 1654 811 1654 c 1
 811 1662 l 1
 1840 1662 2175 1311 2175 840 c 0
811 1654 m 1
 811 1662 l 1
 1360 1662 1393 2137 1393 2420 c 0
 1393 2744 1290 3084 1007 3084 c 0
 700 3084 371 2887 289 2650 c 1
 361 2756 477 2802 581 2802 c 0
 740 2802 897 2679 897 2484 c 0
 897 2269 725 2142 561 2142 c 0
 377 2142 226 2259 226 2478 c 0
 226 2834 651 3108 1069 3108 c 0
 1605 3108 2052 2850 2052 2400 c 0
 2052 1990 1798 1654 811 1654 c 1
EndSplineSet
Validated: 5
EndChar

StartChar: four
Encoding: 52 52 6
GlifName: four
Width: 2620
VWidth: 4730
Flags: HMW
LayerCount: 2
Fore
SplineSet
2437 12 m 1
 2437 0 l 1
 1106 0 l 1
 1106 12 l 1
 1495 12 l 1
 1495 2816 l 1
 164 884 l 1
 2580 884 l 1
 2580 876 l 1
 144 876 l 1
 1659 3072 l 1
 2130 3072 l 1
 2130 12 l 1
 2437 12 l 1
EndSplineSet
Validated: 5
Substitution2: "'ss03' Style Set 3 lookup 5-1" four.alt
EndChar

StartChar: five
Encoding: 53 53 7
GlifName: five
Width: 2191
VWidth: 4730
Flags: HMW
LayerCount: 2
Fore
SplineSet
1925 2458 m 1
 245 2458 l 1
 245 1462 l 1
 233 1462 l 1
 233 3072 l 1
 1913 3072 l 1
 1913 3298 l 1
 1925 3298 l 1
 1925 2458 l 1
86 419 m 1
 150 186 463 -16 803 -16 c 0
 1249 -16 1393 444 1393 911 c 0
 1393 1459 1247 1829 903 1829 c 0
 592 1829 333 1643 249 1462 c 1
 237 1462 l 1
 323 1655 598 1864 1032 1864 c 0
 1650 1864 2069 1525 2069 911 c 0
 2069 358 1564 -40 884 -40 c 0
 446 -40 41 193 41 569 c 0
 41 798 203 946 397 946 c 0
 581 946 754 829 754 604 c 0
 754 399 577 246 377 246 c 0
 244 246 137 327 86 419 c 1
EndSplineSet
Validated: 5
EndChar

StartChar: six
Encoding: 54 54 8
GlifName: six
Width: 2497
VWidth: 4730
Flags: HMW
LayerCount: 2
Fore
SplineSet
1700 1024 m 0
 1700 1675 1556 1964 1294 1964 c 0
 979 1964 880 1678 880 1146 c 1
 868 1146 l 1
 868 1685 944 2018 1417 2018 c 0
 1872 2018 2375 1720 2375 1024 c 0
 2375 410 1966 -40 1307 -40 c 0
 648 -40 204 410 204 1270 c 0
 204 2266 991 3112 2069 3112 c 1
 2069 3100 l 1
 1336 3100 880 2267 880 1368 c 1
 880 1146 l 1
 880 495 996 -28 1319 -28 c 0
 1642 -28 1700 455 1700 1024 c 0
EndSplineSet
Validated: 5
EndChar

StartChar: seven
Encoding: 55 55 9
GlifName: seven
Width: 2211
VWidth: 4730
Flags: HMW
LayerCount: 2
Fore
SplineSet
606 373 m 0
 606 697 1014 1082 1287 1528 c 0
 1426 1766 1595 2081 1790 2437 c 1
 176 2437 l 1
 176 2130 l 1
 164 2130 l 1
 164 3072 l 1
 2171 3072 l 1
 2171 3072 1642 2084 1321 1545 c 0
 1116 1196 1036 1110 1036 971 c 0
 1036 712 1384 652 1384 340 c 0
 1384 127 1241 -40 999 -40 c 0
 778 -40 606 90 606 373 c 0
EndSplineSet
Validated: 1
EndChar

StartChar: eight
Encoding: 56 56 10
GlifName: eight
Width: 2457
VWidth: 4730
Flags: HMW
LayerCount: 2
Fore
SplineSet
901 2294 m 0
 901 1848 988 1602 1229 1602 c 0
 1470 1602 1557 1848 1557 2294 c 0
 1557 2720 1470 3066 1229 3066 c 0
 988 3066 901 2720 901 2294 c 0
246 2294 m 0
 246 2744 590 3112 1229 3112 c 0
 1868 3112 2212 2744 2212 2294 c 0
 2212 1844 1868 1566 1229 1566 c 0
 590 1566 246 1844 246 2294 c 0
819 778 m 0
 819 352 926 6 1229 6 c 0
 1532 6 1639 352 1639 778 c 0
 1639 1204 1532 1554 1229 1554 c 0
 926 1554 819 1204 819 778 c 0
164 778 m 0
 164 1270 508 1590 1229 1590 c 0
 1950 1590 2293 1270 2293 778 c 0
 2293 286 1950 -40 1229 -40 c 0
 508 -40 164 286 164 778 c 0
EndSplineSet
Validated: 5
EndChar

StartChar: A
Encoding: 65 65 12
GlifName: A_
Width: 3204
Flags: HMW
LayerCount: 2
Fore
SplineSet
72 12 m 1
 973 12 l 1
 973 0 l 1
 72 0 l 1
 72 12 l 1
1751 12 m 1
 3144 12 l 1
 3144 0 l 1
 1751 0 l 1
 1751 12 l 1
815 1006 m 1
 2120 1006 l 1
 2120 998 l 1
 815 998 l 1
 815 1006 l 1
1333 2439 m 1
 475 0 l 1
 461 0 l 1
 1562 3134 l 1
 1771 3134 l 1
 2857 0 l 1
 2120 0 l 1
 1333 2439 l 1
EndSplineSet
Validated: 5
EndChar

StartChar: B
Encoding: 66 66 13
GlifName: B_
Width: 2856
Flags: HMW
LayerCount: 2
Fore
SplineSet
1464 1572 m 2
 973 1572 l 1
 973 1582 l 1
 1383 1582 l 2
 1674 1582 1915 1786 1915 2274 c 0
 1915 2762 1674 3060 1383 3060 c 2
 72 3060 l 1
 72 3072 l 1
 1464 3072 l 2
 2144 3072 2570 2846 2570 2314 c 0
 2570 1802 2185 1572 1464 1572 c 2
440 3072 m 1
 1075 3072 l 1
 1075 0 l 1
 440 0 l 1
 440 3072 l 1
1546 0 m 2
 72 0 l 1
 72 12 l 1
 1423 12 l 2
 1755 12 1997 372 1997 860 c 0
 1997 1348 1755 1572 1423 1572 c 2
 973 1572 l 1
 973 1582 l 1
 1546 1582 l 2
 2185 1582 2693 1392 2693 819 c 0
 2693 225 2267 0 1546 0 c 2
EndSplineSet
Validated: 5
EndChar

StartChar: C
Encoding: 67 67 14
GlifName: C_
Width: 2877
Flags: HMW
LayerCount: 2
Fore
SplineSet
2661 3072 m 1
 2673 3072 l 1
 2673 2171 l 1
 2597 2435 2463 2678 2282 2857 c 1
 2661 3072 l 1
2673 2171 m 1
 2657 2171 l 1
 2518 2702 2154 3088 1690 3088 c 0
 1080 3088 891 2282 891 1536 c 0
 891 790 1080 -16 1690 -16 c 0
 2247 -16 2582 402 2699 901 c 1
 2713 901 l 1
 2590 356 2234 -40 1648 -40 c 0
 734 -40 174 622 174 1536 c 0
 174 2450 734 3112 1648 3112 c 0
 2172 3112 2530 2716 2673 2171 c 1
2713 901 m 1
 2713 0 l 1
 2701 0 l 1
 2355 240 l 1
 2533 418 2650 647 2713 901 c 1
EndSplineSet
Validated: 5
EndChar

StartChar: D
Encoding: 68 68 15
GlifName: D_
Width: 3102
Flags: HMW
LayerCount: 2
Fore
SplineSet
440 3072 m 1
 1075 3072 l 1
 1075 0 l 1
 440 0 l 1
 440 3072 l 1
1382 0 m 2
 72 0 l 1
 72 12 l 1
 1382 12 l 2
 2013 12 2222 729 2222 1536 c 0
 2222 2343 1971 3060 1382 3060 c 2
 72 3060 l 1
 72 3072 l 1
 1382 3072 l 2
 2357 3072 2939 2449 2939 1536 c 0
 2939 623 2316 0 1382 0 c 2
EndSplineSet
Validated: 5
EndChar

StartChar: E
Encoding: 69 69 16
GlifName: E_
Width: 2570
Flags: HMW
LayerCount: 2
Fore
SplineSet
2435 922 m 1
 2448 922 l 1
 2448 0 l 1
 72 0 l 1
 72 12 l 1
 1506 12 l 2
 2068 12 2374 402 2435 922 c 1
440 3072 m 1
 1075 3072 l 1
 1075 0 l 1
 440 0 l 1
 440 3072 l 1
72 3072 m 1
 2406 3072 l 1
 2406 2232 l 1
 2394 2232 l 1
 2333 2670 2026 3060 1546 3060 c 2
 72 3060 l 1
 72 3072 l 1
1759 1077 m 1
 1698 1351 1453 1586 1219 1586 c 2
 932 1586 l 1
 932 1594 l 1
 1219 1594 l 2
 1453 1594 1698 1807 1759 2081 c 1
 1772 2081 l 1
 1772 1077 l 1
 1759 1077 l 1
EndSplineSet
Validated: 5
EndChar

StartChar: F
Encoding: 70 70 17
GlifName: F_
Width: 2467
Flags: HMW
LayerCount: 2
Fore
SplineSet
72 3072 m 1
 2345 3072 l 1
 2345 2232 l 1
 2333 2232 l 1
 2272 2670 2006 3060 1547 3060 c 2
 72 3060 l 1
 72 3072 l 1
72 12 m 1
 1485 12 l 1
 1485 0 l 1
 72 0 l 1
 72 12 l 1
440 3072 m 1
 1075 3072 l 1
 1075 0 l 1
 440 0 l 1
 440 3072 l 1
1759 1016 m 1
 1698 1290 1493 1524 1178 1524 c 2
 911 1524 l 1
 911 1532 l 1
 1178 1532 l 2
 1493 1532 1698 1746 1759 2020 c 1
 1771 2020 l 1
 1771 1016 l 1
 1759 1016 l 1
EndSplineSet
Validated: 5
EndChar

StartChar: G
Encoding: 71 71 18
GlifName: G_
Width: 3102
Flags: HMW
LayerCount: 2
Fore
SplineSet
2755 2171 m 1
 2657 2515 2485 2736 2319 2873 c 1
 2743 3072 l 1
 2755 3072 l 1
 2755 2171 l 1
1751 1172 m 1
 3062 1172 l 1
 3062 1164 l 1
 1751 1164 l 1
 1751 1172 l 1
2181 1168 m 1
 2857 1168 l 1
 2857 635 l 1
 2591 356 2296 -40 1628 -40 c 0
 715 -40 174 581 174 1536 c 0
 174 2491 857 3112 1689 3112 c 0
 2213 3112 2655 2675 2755 2171 c 1
 2743 2171 l 1
 2661 2611 2237 3086 1741 3086 c 0
 1131 3086 891 2282 891 1536 c 0
 891 790 1038 -28 1628 -28 c 0
 1972 -28 2120 340 2181 512 c 1
 2181 1168 l 1
EndSplineSet
Validated: 5
EndChar

StartChar: H
Encoding: 72 72 19
GlifName: H_
Width: 3245
Flags: HMW
LayerCount: 2
Fore
SplineSet
993 1520 m 1
 2263 1520 l 1
 2263 1512 l 1
 993 1512 l 1
 993 1520 l 1
1813 12 m 1
 3185 12 l 1
 3185 0 l 1
 1813 0 l 1
 1813 12 l 1
72 12 m 1
 1444 12 l 1
 1444 0 l 1
 72 0 l 1
 72 12 l 1
1813 3072 m 1
 3185 3072 l 1
 3185 3060 l 1
 1813 3060 l 1
 1813 3072 l 1
72 3072 m 1
 1444 3072 l 1
 1444 3060 l 1
 72 3060 l 1
 72 3072 l 1
2181 3072 m 1
 2816 3072 l 1
 2816 0 l 1
 2181 0 l 1
 2181 3072 l 1
440 3072 m 1
 1075 3072 l 1
 1075 0 l 1
 440 0 l 1
 440 3072 l 1
EndSplineSet
Validated: 5
EndChar

StartChar: I
Encoding: 73 73 20
GlifName: I_
Width: 1709
Flags: HMW
LayerCount: 2
Fore
SplineSet
72 12 m 1
 1649 12 l 1
 1649 0 l 1
 72 0 l 1
 72 12 l 1
72 3072 m 1
 1649 3072 l 1
 1649 3060 l 1
 72 3060 l 1
 72 3072 l 1
522 3072 m 1
 1157 3072 l 1
 1157 0 l 1
 522 0 l 1
 522 3072 l 1
EndSplineSet
Validated: 5
EndChar

StartChar: J
Encoding: 74 74 21
GlifName: J_
Width: 2184
Flags: HMW
LayerCount: 2
Fore
SplineSet
547 3072 m 1
 2124 3072 l 1
 2124 3060 l 1
 547 3060 l 1
 547 3072 l 1
1079 3072 m 1
 1714 3072 l 1
 1714 696 l 1
 1550 307 1329 -122 731 -122 c 0
 313 -122 51 123 51 430 c 0
 51 663 224 819 428 819 c 0
 612 819 780 683 780 454 c 0
 780 249 623 93 424 93 c 0
 281 93 168 145 131 188 c 1
 213 39 426 -110 721 -110 c 0
 1032 -110 1079 204 1079 778 c 2
 1079 3072 l 1
EndSplineSet
Validated: 5
Substitution2: "'ss02' Style Set 2 lookup 4-1" J.alt
EndChar

StartChar: K
Encoding: 75 75 22
GlifName: K_
Width: 3143
Flags: HMW
LayerCount: 2
Fore
SplineSet
72 12 m 1
 1444 12 l 1
 1444 0 l 1
 72 0 l 1
 72 12 l 1
72 3072 m 1
 1485 3072 l 1
 1485 3060 l 1
 72 3060 l 1
 72 3072 l 1
440 3072 m 1
 1075 3072 l 1
 1075 0 l 1
 440 0 l 1
 440 3072 l 1
608 888 m 1
 592 888 l 1
 2452 3064 l 1
 2468 3064 l 1
 608 888 l 1
1649 12 m 1
 3123 12 l 1
 3123 0 l 1
 1649 0 l 1
 1649 12 l 1
2939 3060 m 1
 1956 3060 l 1
 1956 3072 l 1
 2939 3072 l 1
 2939 3060 l 1
2804 0 m 1
 2067 0 l 1
 1175 1569 l 1
 1595 2044 l 1
 2804 0 l 1
EndSplineSet
Validated: 5
EndChar

StartChar: L
Encoding: 76 76 23
GlifName: L_
Width: 2518
Flags: HMW
LayerCount: 2
Fore
SplineSet
440 3072 m 1
 1075 3072 l 1
 1075 0 l 1
 440 0 l 1
 440 3072 l 1
72 3072 m 1
 1444 3072 l 1
 1444 3060 l 1
 72 3060 l 1
 72 3072 l 1
2437 0 m 1
 72 0 l 1
 72 12 l 1
 1495 12 l 2
 2098 12 2364 402 2425 922 c 1
 2437 922 l 1
 2437 0 l 1
EndSplineSet
Validated: 5
EndChar

StartChar: M
Encoding: 77 77 24
GlifName: M_
Width: 3614
Flags: HMW
LayerCount: 2
Fore
SplineSet
3553 3072 m 1
 3553 3060 l 1
 3267 3060 l 1
 3267 0 l 1
 2632 0 l 1
 2632 3072 l 1
 3553 3072 l 1
92 12 m 1
 714 12 l 1
 714 0 l 1
 92 0 l 1
 92 12 l 1
2304 12 m 1
 3553 12 l 1
 3553 0 l 1
 2304 0 l 1
 2304 12 l 1
1851 872 m 1
 2628 3072 l 1
 2636 3072 l 1
 1546 -40 l 1
 1530 -40 l 1
 391 3072 l 1
 1030 3072 l 1
 1851 872 l 1
387 3060 m 1
 72 3060 l 1
 72 3072 l 1
 400 3072 l 1
 400 0 l 1
 387 0 l 1
 387 3060 l 1
EndSplineSet
Validated: 5
EndChar

StartChar: N
Encoding: 78 78 25
GlifName: N_
Width: 3061
Flags: HMW
LayerCount: 2
Fore
SplineSet
2560 3072 m 1
 2572 3072 l 1
 2572 -40 l 1
 2558 -40 l 1
 482 3072 l 1
 1239 3072 l 1
 2560 1042 l 1
 2560 3072 l 1
2091 3072 m 1
 3002 3072 l 1
 3002 3060 l 1
 2091 3060 l 1
 2091 3072 l 1
72 12 m 1
 965 12 l 1
 965 0 l 1
 72 0 l 1
 72 12 l 1
477 3060 m 1
 72 3060 l 1
 72 3072 l 1
 490 3072 l 1
 490 0 l 1
 477 0 l 1
 477 3060 l 1
EndSplineSet
Validated: 5
EndChar

StartChar: O
Encoding: 79 79 26
GlifName: O_
Width: 3122
Flags: HMW
LayerCount: 2
Fore
SplineSet
1567 -40 m 0
 694 -40 174 643 174 1536 c 0
 174 2429 736 3112 1567 3112 c 0
 2398 3112 2959 2429 2959 1536 c 0
 2959 643 2440 -40 1567 -40 c 0
1567 3100 m 0
 1038 3100 891 2384 891 1536 c 0
 891 688 998 -28 1567 -28 c 0
 2136 -28 2242 688 2242 1536 c 0
 2242 2384 2096 3100 1567 3100 c 0
EndSplineSet
Validated: 1
EndChar

StartChar: P
Encoding: 80 80 27
GlifName: P_
Width: 2754
Flags: HMW
LayerCount: 2
Fore
SplineSet
440 3072 m 1
 1075 3072 l 1
 1075 0 l 1
 440 0 l 1
 440 3072 l 1
72 12 m 1
 1444 12 l 1
 1444 0 l 1
 72 0 l 1
 72 12 l 1
1485 1388 m 2
 891 1388 l 1
 891 1396 l 1
 1403 1396 l 2
 1756 1396 1915 1848 1915 2212 c 0
 1915 2576 1756 3060 1403 3060 c 2
 72 3060 l 1
 72 3072 l 1
 1485 3072 l 2
 2268 3072 2612 2744 2612 2212 c 0
 2612 1680 2268 1388 1485 1388 c 2
EndSplineSet
Validated: 5
EndChar

StartChar: Q
Encoding: 81 81 28
GlifName: Q_
Width: 3122
Flags: HMW
LayerCount: 2
Fore
SplineSet
1567 -40 m 0
 694 -40 174 643 174 1536 c 0
 174 2429 736 3112 1567 3112 c 0
 2398 3112 2959 2429 2959 1536 c 0
 2959 643 2440 -40 1567 -40 c 0
1567 3100 m 0
 1038 3100 891 2384 891 1536 c 0
 891 688 998 -28 1567 -28 c 0
 2136 -28 2242 688 2242 1536 c 0
 2242 2384 2096 3100 1567 3100 c 0
2386 -1012 m 1
 2386 -1024 l 1
 1370 -1024 1198 -795 1198 16 c 1
 1440 -55 1681 -55 1915 16 c 1
 1915 -730 1940 -1012 2386 -1012 c 1
EndSplineSet
Validated: 37
EndChar

StartChar: R
Encoding: 82 82 29
GlifName: R_
Width: 3040
Flags: HMW
LayerCount: 2
Fore
SplineSet
1505 1572 m 2
 809 1572 l 1
 809 1582 l 1
 1403 1582 l 2
 1797 1582 1997 1827 1997 2314 c 0
 1997 2801 1797 3060 1403 3060 c 2
 72 3060 l 1
 72 3072 l 1
 1505 3072 l 2
 2185 3072 2652 2846 2652 2314 c 0
 2652 1782 2226 1572 1505 1572 c 2
72 12 m 1
 1526 12 l 1
 1526 0 l 1
 72 0 l 1
 72 12 l 1
481 3072 m 1
 1116 3072 l 1
 1116 0 l 1
 481 0 l 1
 481 3072 l 1
3000 54 m 1
 2934 18 2755 -30 2509 -30 c 0
 1391 -30 2411 1572 1403 1572 c 2
 809 1572 l 1
 809 1582 l 1
 1731 1582 l 2
 3074 1582 2261 8 2765 8 c 0
 2851 8 2938 34 2996 62 c 1
 3000 54 l 1
EndSplineSet
Validated: 5
Substitution2: "'ss01' Style Set 1 lookup 2-1" R.alt
EndChar

StartChar: S
Encoding: 83 83 30
GlifName: S_
Width: 2446
Flags: HMW
LayerCount: 2
Fore
SplineSet
2120 2192 m 1
 2105 2192 l 1
 1941 2760 1622 3096 1145 3096 c 0
 813 3096 645 2882 645 2599 c 0
 645 1903 2284 2068 2284 881 c 0
 2284 308 1838 -62 1260 -62 c 0
 622 -62 334 429 174 921 c 1
 188 921 l 1
 346 435 638 -48 1244 -48 c 0
 1637 -48 1874 209 1874 573 c 0
 1874 1351 215 1107 215 2294 c 0
 215 2806 650 3112 1125 3112 c 0
 1629 3112 1956 2770 2120 2192 c 1
2107 3112 m 1
 2120 3112 l 1
 2120 2192 l 1
 2024 2464 1915 2695 1734 2873 c 1
 2107 3112 l 1
186 -40 m 1
 174 -40 l 1
 174 921 l 1
 299 597 416 381 571 221 c 1
 186 -40 l 1
EndSplineSet
Validated: 5
EndChar

StartChar: T
Encoding: 84 84 31
GlifName: T_
Width: 2774
Flags: HMW
LayerCount: 2
Fore
SplineSet
625 12 m 1
 2161 12 l 1
 2161 0 l 1
 625 0 l 1
 625 12 l 1
1075 3070 m 1
 1711 3070 l 1
 1711 0 l 1
 1075 0 l 1
 1075 3070 l 1
1976 3060 m 2
 809 3060 l 2
 370 3060 145 2609 84 2089 c 1
 72 2089 l 1
 72 3072 l 1
 2714 3072 l 1
 2714 2089 l 1
 2701 2089 l 1
 2640 2609 2415 3060 1976 3060 c 2
EndSplineSet
Validated: 5
EndChar

StartChar: U
Encoding: 85 85 32
GlifName: U_
Width: 2959
Flags: HMW
LayerCount: 2
Fore
SplineSet
2099 3072 m 1
 2898 3072 l 1
 2898 3060 l 1
 2099 3060 l 1
 2099 3072 l 1
72 3072 m 1
 1485 3072 l 1
 1485 3060 l 1
 72 3060 l 1
 72 3072 l 1
2484 3072 m 1
 2493 3072 l 1
 2493 942 l 2
 2493 266 2214 -62 1546 -62 c 0
 776 -62 440 234 440 942 c 2
 440 3072 l 1
 1075 3072 l 1
 1075 984 l 2
 1075 444 1172 -22 1700 -22 c 0
 2183 -22 2484 274 2484 942 c 2
 2484 3072 l 1
EndSplineSet
Validated: 5
EndChar

StartChar: V
Encoding: 86 86 33
GlifName: V_
Width: 3163
Flags: HMW
LayerCount: 2
Fore
SplineSet
3123 3060 m 1
 2222 3060 l 1
 2222 3072 l 1
 3123 3072 l 1
 3123 3060 l 1
1526 3060 m 1
 51 3060 l 1
 51 3072 l 1
 1526 3072 l 1
 1526 3060 l 1
1866 635 m 1
 2740 3072 l 1
 2754 3072 l 1
 1632 -62 l 1
 1424 -62 l 1
 338 3072 l 1
 1075 3072 l 1
 1866 635 l 1
EndSplineSet
Validated: 5
EndChar

StartChar: W
Encoding: 87 87 34
GlifName: W_
Width: 4515
Flags: HMW
LayerCount: 2
Fore
SplineSet
2439 1946 m 1
 1679 -40 l 1
 1505 -40 l 1
 375 3072 l 1
 1096 3072 l 1
 1948 701 l 1
 2453 2024 l 1
 2439 1946 l 1
2681 1907 m 1
 2681 1952 l 1
 3098 3072 l 1
 3113 3072 l 1
 2681 1907 l 1
4475 3060 m 1
 3656 3060 l 1
 3656 3072 l 1
 4475 3072 l 1
 4475 3060 l 1
2347 3072 m 1
 3194 701 l 1
 4086 3072 l 1
 4100 3072 l 1
 2931 -40 l 1
 2820 -40 l 1
 1688 3072 l 1
 2347 3072 l 1
3471 3060 m 1
 51 3060 l 1
 51 3072 l 1
 3471 3072 l 1
 3471 3060 l 1
EndSplineSet
Validated: 5
EndChar

StartChar: X
Encoding: 88 88 35
GlifName: X_
Width: 3245
Flags: HMW
LayerCount: 2
Fore
SplineSet
1632 1544 m 1
 1616 1544 l 1
 2576 3064 l 1
 2593 3064 l 1
 1632 1544 l 1
518 0 m 1
 502 0 l 1
 1630 1708 l 1
 1648 1708 l 1
 518 0 l 1
1812 12 m 1
 3205 12 l 1
 3205 0 l 1
 1812 0 l 1
 1812 12 l 1
51 12 m 1
 1034 12 l 1
 1034 0 l 1
 51 0 l 1
 51 12 l 1
1587 3060 m 1
 194 3060 l 1
 194 3072 l 1
 1587 3072 l 1
 1587 3060 l 1
2980 3060 m 1
 2079 3060 l 1
 2079 3072 l 1
 2980 3072 l 1
 2980 3060 l 1
2943 0 m 1
 2206 0 l 1
 440 3072 l 1
 1161 3072 l 1
 2943 0 l 1
EndSplineSet
Validated: 5
EndChar

StartChar: Y
Encoding: 89 89 36
GlifName: Y_
Width: 3020
Flags: HMW
LayerCount: 2
Fore
SplineSet
2980 3060 m 1
 2120 3060 l 1
 2120 3072 l 1
 2980 3072 l 1
 2980 3060 l 1
1485 3060 m 1
 51 3060 l 1
 51 3072 l 1
 1485 3072 l 1
 1485 3060 l 1
870 12 m 1
 2284 12 l 1
 2284 0 l 1
 870 0 l 1
 870 12 l 1
1866 1582 m 1
 2597 3064 l 1
 2613 3064 l 1
 1874 1568 l 1
 1874 0 l 1
 1239 0 l 1
 1239 1474 l 1
 317 3072 l 1
 1054 3072 l 1
 1866 1582 l 1
EndSplineSet
Validated: 5
EndChar

StartChar: Z
Encoding: 90 90 37
GlifName: Z_
Width: 2528
Flags: HMW
LayerCount: 2
Fore
SplineSet
133 3072 m 1
 2345 3072 l 1
 2345 3060 l 1
 768 12 l 1
 1526 12 l 2
 2088 12 2292 320 2374 840 c 1
 2386 840 l 1
 2386 0 l 1
 51 0 l 1
 51 12 l 1
 1628 3060 l 1
 993 3060 l 2
 431 3060 228 2752 146 2314 c 1
 133 2314 l 1
 133 3072 l 1
EndSplineSet
Validated: 1
EndChar

StartChar: a
Encoding: 97 97 38
GlifName: a
Width: 2359
VWidth: 4730
Flags: HMW
LayerCount: 2
Fore
SplineSet
2359 258 m 1
 2265 54 2053 -40 1815 -40 c 0
 1561 -40 1335 38 1335 320 c 2
 1335 1250 l 2
 1335 1565 1255 1894 948 1894 c 0
 715 1894 512 1798 432 1720 c 1
 721 1841 946 1680 946 1487 c 0
 946 1303 766 1192 602 1192 c 0
 418 1192 287 1311 287 1479 c 0
 287 1743 644 1916 1057 1916 c 0
 1733 1916 1909 1623 1909 1250 c 2
 1909 182 l 2
 1909 90 1960 29 2058 29 c 0
 2124 29 2267 86 2351 258 c 1
 2359 258 l 1
1040 1032 m 2
 1548 1032 l 1
 1548 1024 l 1
 1183 1024 l 2
 933 1024 766 786 766 512 c 0
 766 260 856 119 999 119 c 0
 1167 119 1335 269 1335 742 c 1
 1348 742 l 1
 1348 234 1150 -40 696 -40 c 0
 372 -40 143 158 143 462 c 0
 143 806 438 1032 1040 1032 c 2
EndSplineSet
Validated: 37
EndChar

StartChar: b
Encoding: 98 98 39
GlifName: b
Width: 2530
VWidth: 4730
Flags: HMW
LayerCount: 2
Fore
SplineSet
893 942 m 0
 893 1564 1122 1922 1542 1922 c 0
 1988 1922 2411 1556 2411 942 c 0
 2411 328 1988 -40 1542 -40 c 0
 1124 -40 893 320 893 942 c 0
903 942 m 0
 903 314 1155 10 1417 10 c 0
 1659 10 1755 353 1755 942 c 0
 1755 1531 1659 1870 1417 1870 c 0
 1155 1870 903 1570 903 942 c 0
330 3060 m 1
 61 3060 l 1
 61 3072 l 1
 903 3072 l 1
 903 0 l 1
 61 0 l 1
 61 12 l 1
 330 12 l 1
 330 3060 l 1
EndSplineSet
Validated: 5
EndChar

StartChar: c
Encoding: 99 99 40
GlifName: c
Width: 2094
VWidth: 4730
Flags: HMW
LayerCount: 2
Fore
SplineSet
1864 1546 m 1
 1794 1747 1522 1906 1233 1906 c 0
 848 1906 799 1328 799 942 c 0
 799 476 889 -8 1233 -8 c 0
 1579 -8 1819 238 1925 586 c 1
 1937 586 l 1
 1831 230 1594 -40 1139 -40 c 0
 541 -40 123 287 123 942 c 0
 123 1515 483 1926 1163 1926 c 0
 1601 1926 1935 1681 1935 1366 c 0
 1935 1157 1794 1040 1610 1040 c 0
 1446 1040 1273 1126 1273 1362 c 0
 1273 1567 1450 1669 1589 1669 c 0
 1724 1669 1819 1612 1864 1546 c 1
EndSplineSet
Validated: 1
EndChar

StartChar: d
Encoding: 100 100 41
GlifName: d
Width: 2530
VWidth: 4730
Flags: HMW
LayerCount: 2
Fore
SplineSet
1642 940 m 0
 1642 318 1411 -38 991 -38 c 0
 545 -38 123 326 123 940 c 0
 123 1554 545 1924 991 1924 c 0
 1409 1924 1642 1562 1642 940 c 0
1630 940 m 0
 1630 1570 1377 1872 1117 1872 c 0
 875 1872 779 1529 779 940 c 0
 779 351 875 12 1117 12 c 0
 1377 12 1630 310 1630 940 c 0
2472 12 m 1
 2472 0 l 1
 1630 0 l 1
 1630 3060 l 1
 1364 3060 l 1
 1364 3072 l 1
 2204 3072 l 1
 2204 12 l 1
 2472 12 l 1
EndSplineSet
Validated: 5
EndChar

StartChar: e
Encoding: 101 101 42
GlifName: e
Width: 2131
VWidth: 4730
Flags: HMW
LayerCount: 2
Fore
SplineSet
397 1064 m 1
 397 1074 l 1
 1407 1074 l 1
 1407 1435 1378 1912 1116 1912 c 0
 833 1912 758 1449 758 983 c 0
 758 455 844 -10 1229 -10 c 0
 1620 -10 1905 244 2007 586 c 1
 2020 586 l 1
 1914 230 1624 -40 1129 -40 c 0
 552 -40 123 307 123 942 c 0
 123 1577 539 1926 1116 1926 c 0
 1726 1926 2016 1510 2016 1064 c 1
 397 1064 l 1
EndSplineSet
Validated: 5
EndChar

StartChar: f
Encoding: 102 102 43
GlifName: f
Width: 1576
VWidth: 4730
Flags: HMW
LayerCount: 2
Fore
SplineSet
41 12 m 1
 1415 12 l 1
 1415 0 l 1
 41 0 l 1
 41 12 l 1
41 1884 m 1
 1497 1884 l 1
 1497 1872 l 1
 41 1872 l 1
 41 1884 l 1
1907 2771 m 1
 1868 2904 1718 3100 1384 3100 c 0
 1056 3100 944 2732 944 2212 c 2
 944 0 l 1
 392 0 l 1
 392 2098 l 2
 392 2675 788 3112 1382 3112 c 0
 1734 3112 1948 2879 1948 2646 c 0
 1948 2437 1816 2310 1632 2310 c 0
 1468 2310 1301 2416 1301 2617 c 0
 1301 2812 1455 2931 1620 2931 c 0
 1749 2931 1846 2869 1907 2771 c 1
EndSplineSet
Validated: 5
EndChar

StartChar: g
Encoding: 103 103 44
GlifName: g
Width: 2506
VWidth: 4730
Flags: HMW
LayerCount: 2
Fore
SplineSet
192 265 m 0
 192 571 653 680 1004 680 c 1
 1004 670 l 1
 828 670 553 620 553 469 c 0
 553 348 744 344 970 344 c 0
 1114 344 1209 348 1323 348 c 0
 1631 348 2007 222 2007 -336 c 0
 2007 -832 1597 -1064 1044 -1064 c 0
 561 -1064 61 -922 61 -553 c 0
 61 -201 512 -127 696 -127 c 2
 717 -127 l 1
 574 -205 553 -366 553 -457 c 0
 553 -776 729 -1048 1082 -1048 c 0
 1467 -1048 1909 -886 1909 -510 c 0
 1909 -249 1597 -139 1331 -139 c 0
 1225 -139 996 -139 906 -139 c 0
 538 -139 192 -50 192 265 c 0
758 1290 m 0
 758 945 779 680 1000 680 c 0
 1160 680 1241 945 1241 1290 c 0
 1241 1635 1160 1912 1000 1912 c 0
 840 1912 758 1635 758 1290 c 0
164 1290 m 0
 164 1740 607 1926 1000 1926 c 0
 1393 1926 1835 1740 1835 1290 c 0
 1835 840 1393 670 1000 670 c 0
 607 670 164 840 164 1290 c 0
2447 1614 m 1
 2427 1745 2311 1892 2072 1892 c 0
 1863 1892 1622 1774 1540 1418 c 1
 1530 1422 l 1
 1612 1794 1867 1904 2072 1904 c 0
 2342 1904 2468 1719 2468 1563 c 0
 2468 1338 2331 1266 2208 1266 c 0
 2085 1266 1952 1344 1952 1521 c 0
 1952 1656 2061 1766 2206 1766 c 0
 2321 1766 2425 1694 2447 1614 c 1
EndSplineSet
Validated: 5
EndChar

StartChar: h
Encoding: 104 104 45
GlifName: h
Width: 2477
VWidth: 4730
Flags: HMW
LayerCount: 2
Fore
SplineSet
1579 1301 m 2
 1579 1645 1551 1814 1379 1814 c 0
 977 1814 903 1286 903 914 c 1
 893 903 l 1
 893 1309 954 1926 1571 1926 c 0
 2030 1926 2153 1662 2153 1306 c 2
 2153 0 l 1
 1579 0 l 1
 1579 1301 l 2
1373 12 m 1
 2419 12 l 1
 2419 0 l 1
 1373 0 l 1
 1373 12 l 1
61 12 m 1
 1108 12 l 1
 1108 0 l 1
 61 0 l 1
 61 12 l 1
330 3060 m 1
 61 3060 l 1
 61 3072 l 1
 903 3072 l 1
 903 0 l 1
 330 0 l 1
 330 3060 l 1
EndSplineSet
Validated: 5
EndChar

StartChar: i
Encoding: 105 105 46
GlifName: i
Width: 1238
VWidth: 4730
Flags: HMW
LayerCount: 2
Fore
SplineSet
82 12 m 1
 1190 12 l 1
 1190 0 l 1
 82 0 l 1
 82 12 l 1
248 2765 m 0
 248 2962 399 3112 596 3112 c 0
 793 3112 944 2962 944 2765 c 0
 944 2568 793 2417 596 2417 c 0
 399 2417 248 2568 248 2765 c 0
350 1872 m 1
 82 1872 l 1
 82 1884 l 1
 923 1884 l 1
 923 0 l 1
 350 0 l 1
 350 1872 l 1
EndSplineSet
Validated: 5
EndChar

StartChar: j
Encoding: 106 106 47
GlifName: j
Width: 1277
VWidth: 4730
Flags: HMW
LayerCount: 2
Fore
SplineSet
318 2765 m 0
 318 2962 469 3112 666 3112 c 0
 863 3112 1014 2962 1014 2765 c 0
 1014 2568 863 2417 666 2417 c 0
 469 2417 318 2568 318 2765 c 0
985 1884 m 1
 985 -50 l 2
 985 -586 670 -1064 97 -1064 c 0
 -276 -1064 -530 -846 -530 -575 c 0
 -530 -368 -373 -241 -195 -241 c 0
 -31 -241 137 -340 137 -545 c 0
 137 -740 -2 -857 -213 -857 c 0
 -381 -857 -490 -744 -510 -627 c 1
 -502 -840 -268 -1044 45 -1044 c 0
 475 -1044 402 -432 402 88 c 2
 412 1872 l 1
 61 1872 l 1
 61 1884 l 1
 985 1884 l 1
EndSplineSet
Validated: 33
EndChar

StartChar: k
Encoding: 107 107 48
GlifName: k
Width: 2563
VWidth: 4730
Flags: HMW
LayerCount: 2
Fore
SplineSet
2390 0 m 1
 1681 0 l 1
 871 1090 l 1
 1985 1884 l 1
 2003 1884 l 1
 1311 1380 l 1
 2390 0 l 1
1409 12 m 1
 2546 12 l 1
 2546 0 l 1
 1409 0 l 1
 1409 12 l 1
2345 1872 m 1
 1470 1872 l 1
 1470 1884 l 1
 2345 1884 l 1
 2345 1872 l 1
61 12 m 1
 1211 12 l 1
 1211 0 l 1
 61 0 l 1
 61 12 l 1
412 3060 m 1
 61 3060 l 1
 61 3072 l 1
 985 3072 l 1
 985 0 l 1
 412 0 l 1
 412 3060 l 1
EndSplineSet
Validated: 5
EndChar

StartChar: l
Encoding: 108 108 49
GlifName: l
Width: 1391
VWidth: 4730
Flags: HMW
LayerCount: 2
Fore
SplineSet
61 12 m 1
 1333 12 l 1
 1333 0 l 1
 61 0 l 1
 61 12 l 1
412 3060 m 1
 61 3060 l 1
 61 3072 l 1
 985 3072 l 1
 985 0 l 1
 412 0 l 1
 412 3060 l 1
EndSplineSet
Validated: 5
EndChar

StartChar: m
Encoding: 109 109 50
GlifName: m
Width: 3563
VWidth: 4730
Flags: HMW
LayerCount: 2
Fore
SplineSet
2071 1306 m 2
 2071 0 l 1
 1498 0 l 1
 1498 1301 l 2
 1498 1645 1465 1816 1313 1816 c 0
 989 1816 903 1315 903 914 c 1
 893 903 l 1
 893 1309 943 1926 1519 1926 c 0
 1933 1926 2071 1662 2071 1306 c 2
61 12 m 1
 1098 12 l 1
 1098 0 l 1
 61 0 l 1
 61 12 l 1
1301 12 m 1
 2265 12 l 1
 2265 0 l 1
 1301 0 l 1
 1301 12 l 1
2468 12 m 1
 3504 12 l 1
 3504 0 l 1
 2468 0 l 1
 2468 12 l 1
330 1872 m 1
 61 1872 l 1
 61 1884 l 1
 903 1884 l 1
 903 0 l 1
 330 0 l 1
 330 1872 l 1
3238 1306 m 2
 3238 0 l 1
 2664 0 l 1
 2664 1301 l 2
 2664 1645 2633 1816 2481 1816 c 0
 2155 1816 2071 1315 2071 914 c 1
 2061 903 l 1
 2061 1309 2107 1926 2685 1926 c 0
 3099 1926 3238 1662 3238 1306 c 2
EndSplineSet
Validated: 5
EndChar

StartChar: n
Encoding: 110 110 51
GlifName: n
Width: 2477
VWidth: 4730
Flags: HMW
LayerCount: 2
Fore
SplineSet
1579 1301 m 2
 1579 1645 1551 1814 1379 1814 c 0
 977 1814 903 1286 903 914 c 1
 893 903 l 1
 893 1309 956 1926 1571 1926 c 0
 2030 1926 2153 1662 2153 1306 c 2
 2153 0 l 1
 1579 0 l 1
 1579 1301 l 2
1373 12 m 1
 2419 12 l 1
 2419 0 l 1
 1373 0 l 1
 1373 12 l 1
61 12 m 1
 1108 12 l 1
 1108 0 l 1
 61 0 l 1
 61 12 l 1
330 1872 m 1
 61 1872 l 1
 61 1884 l 1
 903 1884 l 1
 903 0 l 1
 330 0 l 1
 330 1872 l 1
EndSplineSet
Validated: 5
EndChar

StartChar: o
Encoding: 111 111 52
GlifName: o
Width: 2244
VWidth: 4730
Flags: HMW
LayerCount: 2
Fore
SplineSet
738 942 m 0
 738 454 820 -28 1123 -28 c 0
 1426 -28 1508 454 1508 942 c 0
 1508 1430 1426 1912 1123 1912 c 0
 820 1912 738 1430 738 942 c 0
123 942 m 0
 123 1474 504 1926 1123 1926 c 0
 1742 1926 2122 1474 2122 942 c 0
 2122 410 1742 -40 1123 -40 c 0
 504 -40 123 410 123 942 c 0
EndSplineSet
Validated: 1
EndChar

StartChar: p
Encoding: 112 112 53
GlifName: p
Width: 2530
VWidth: 4730
Flags: HMW
LayerCount: 2
Fore
SplineSet
893 942 m 0
 893 1564 1122 1922 1542 1922 c 0
 1988 1922 2411 1556 2411 942 c 0
 2411 328 1988 -40 1542 -40 c 0
 1124 -40 893 320 893 942 c 0
903 942 m 0
 903 312 1157 10 1417 10 c 0
 1659 10 1755 355 1755 942 c 0
 1755 1529 1659 1870 1417 1870 c 0
 1157 1870 903 1572 903 942 c 0
61 -1012 m 1
 1169 -1012 l 1
 1169 -1024 l 1
 61 -1024 l 1
 61 -1012 l 1
330 1872 m 1
 61 1872 l 1
 61 1884 l 1
 903 1884 l 1
 903 -1024 l 1
 330 -1024 l 1
 330 1872 l 1
EndSplineSet
Validated: 5
EndChar

StartChar: q
Encoding: 113 113 54
GlifName: q
Width: 2530
VWidth: 4730
Flags: HMW
LayerCount: 2
Fore
SplineSet
1642 940 m 0
 1642 318 1411 -38 991 -38 c 0
 545 -38 123 326 123 940 c 0
 123 1554 545 1924 991 1924 c 0
 1409 1924 1642 1562 1642 940 c 0
1630 940 m 0
 1630 1570 1377 1872 1117 1872 c 0
 875 1872 779 1527 779 940 c 0
 779 353 875 12 1117 12 c 0
 1379 12 1630 310 1630 940 c 0
2472 -1012 m 1
 2472 -1024 l 1
 1364 -1024 l 1
 1364 -1012 l 1
 2472 -1012 l 1
2472 1884 m 1
 2472 1872 l 1
 2204 1872 l 1
 2204 -1024 l 1
 1630 -1024 l 1
 1630 1884 l 1
 2472 1884 l 1
EndSplineSet
Validated: 5
EndChar

StartChar: r
Encoding: 114 114 55
GlifName: r
Width: 1912
VWidth: 4730
Flags: HMW
LayerCount: 2
Fore
SplineSet
1857 1614 m 1
 1799 1805 1612 1912 1435 1912 c 0
 940 1912 903 1375 903 914 c 1
 893 914 l 1
 893 1414 940 1926 1435 1926 c 0
 1664 1926 1895 1753 1895 1491 c 0
 1895 1300 1772 1139 1555 1139 c 0
 1358 1139 1210 1263 1210 1466 c 0
 1210 1804 1681 1938 1857 1614 c 1
61 12 m 1
 1169 12 l 1
 1169 0 l 1
 61 0 l 1
 61 12 l 1
330 1872 m 1
 61 1872 l 1
 61 1884 l 1
 903 1884 l 1
 903 0 l 1
 330 0 l 1
 330 1872 l 1
EndSplineSet
Validated: 37
EndChar

StartChar: s
Encoding: 115 115 56
GlifName: s
Width: 1802
VWidth: 4730
Flags: HMW
LayerCount: 2
Fore
SplineSet
1474 1532 m 1
 1423 1616 1356 1691 1292 1749 c 1
 1546 1926 l 1
 1554 1926 l 1
 1554 1352 l 1
 1548 1352 l 1
 1534 1412.5 1511.16156457 1470.22975646 1474 1532 c 1
1554 1352 m 1
 1544 1352 l 1
 1462 1614 1220 1908 829 1908 c 0
 595 1908 452 1796 452 1639 c 0
 452 1192 1700 1373 1700 602 c 0
 1700 176 1336 -40 959 -40 c 0
 553 -40 256 213 154 594 c 1
 166 594 l 1
 268 219 567 -26 948 -26 c 0
 1212 -26 1401 85 1401 293 c 0
 1401 750 192 528 192 1331 c 0
 192 1655 437 1922 827 1922 c 0
 1229 1922 1472 1622 1554 1352 c 1
166 -40 m 1
 154 -40 l 1
 154 594 l 1
 164 594 l 1
 180.612718116 487.666666652 210.727559368 448.333333346 242 383 c 1
 304 282 369 207 422 158 c 1
 166 -40 l 1
EndSplineSet
Validated: 524293
EndChar

StartChar: t
Encoding: 116 116 57
GlifName: t
Width: 1464
VWidth: 4730
Flags: HMW
LayerCount: 2
Fore
SplineSet
20 1884 m 1
 1331 1884 l 1
 1331 1872 l 1
 20 1872 l 1
 20 1884 l 1
1454 418 m 1
 1356 156 1126 -28 794 -28 c 0
 397 -28 320 188 320 475 c 2
 320 2294 l 1
 504 2294 750 2334 893 2416 c 1
 893 343 l 2
 893 139 938 59 1048 59 c 0
 1183 59 1354 193 1446 418 c 1
 1454 418 l 1
EndSplineSet
Validated: 5
EndChar

StartChar: u
Encoding: 117 117 58
GlifName: u
Width: 2477
VWidth: 4730
Flags: HMW
LayerCount: 2
Fore
SplineSet
903 1884 m 1
 903 583 l 2
 903 239 932 70 1104 70 c 0
 1506 70 1579 598 1579 970 c 1
 1590 981 l 1
 1590 575 1527 -40 912 -40 c 0
 453 -40 330 222 330 578 c 2
 330 1872 l 1
 61 1872 l 1
 61 1884 l 1
 903 1884 l 1
2153 12 m 1
 2419 12 l 1
 2419 0 l 1
 1579 0 l 1
 1579 1872 l 1
 1313 1872 l 1
 1313 1884 l 1
 2153 1884 l 1
 2153 12 l 1
EndSplineSet
Validated: 5
EndChar

StartChar: v
Encoding: 118 118 59
GlifName: v
Width: 2309
VWidth: 4730
Flags: HMW
LayerCount: 2
Fore
SplineSet
2302 1872 m 1
 1547 1872 l 1
 1547 1884 l 1
 2302 1884 l 1
 2302 1872 l 1
1184 1872 m 1
 -10 1872 l 1
 -10 1884 l 1
 1184 1884 l 1
 1184 1872 l 1
1378 490 m 1
 1945 1884 l 1
 1962 1884 l 1
 1180 -40 l 1
 1028 -40 l 1
 238 1884 l 1
 872 1884 l 1
 1378 490 l 1
EndSplineSet
Validated: 5
EndChar

StartChar: w
Encoding: 119 119 60
GlifName: w
Width: 3337
VWidth: 4730
Flags: HMW
LayerCount: 2
Fore
SplineSet
1204 1872 m 1
 -10 1872 l 1
 -10 1884 l 1
 1204 1884 l 1
 1204 1872 l 1
3330 1872 m 1
 2492 1872 l 1
 2492 1884 l 1
 3330 1884 l 1
 3330 1872 l 1
1239 526 m 1
 1819 1926 l 1
 2101 1926 l 1
 2500 616 l 1
 2923 1884 l 1
 2939 1884 l 1
 2295 -40 l 1
 2138 -40 l 1
 1607 1380 l 1
 1022 -40 l 1
 864 -40 l 1
 238 1884 l 1
 848 1884 l 1
 1239 526 l 1
EndSplineSet
Validated: 5
EndChar

StartChar: x
Encoding: 120 120 61
GlifName: x
Width: 2309
VWidth: 4730
Flags: HMW
LayerCount: 2
Fore
SplineSet
1170 12 m 1
 2281 12 l 1
 2281 0 l 1
 1170 0 l 1
 1170 12 l 1
30 12 m 1
 768 12 l 1
 768 0 l 1
 30 0 l 1
 30 12 l 1
1204 1872 m 1
 51 1872 l 1
 51 1884 l 1
 1204 1884 l 1
 1204 1872 l 1
2230 1872 m 1
 1536 1872 l 1
 1536 1884 l 1
 2230 1884 l 1
 2230 1872 l 1
2118 0 m 1
 1442 0 l 1
 258 1884 l 1
 913 1884 l 1
 2118 0 l 1
332 0 m 1
 316 0 l 1
 1891 1884 l 1
 1907 1884 l 1
 332 0 l 1
EndSplineSet
Validated: 5
EndChar

StartChar: y
Encoding: 121 121 62
GlifName: y
Width: 2387
VWidth: 4730
Flags: HMW
LayerCount: 2
Fore
SplineSet
1288 1872 m 1
 -31 1872 l 1
 -31 1884 l 1
 1288 1884 l 1
 1288 1872 l 1
2441 1872 m 1
 1722 1872 l 1
 1722 1884 l 1
 2441 1884 l 1
 2441 1872 l 1
1555 574 m 1
 1235 -104 l 1
 213 1884 l 1
 889 1884 l 1
 1555 574 l 1
909 -813 m 1
 2137 1884 l 1
 2151 1884 l 1
 934 -793 l 2
 864 -943 764 -1055 588 -1055 c 0
 424 -1055 270 -946 270 -749 c 0
 270 -572 405 -426 598 -426 c 0
 779 -426 934 -585 909 -813 c 1
EndSplineSet
Validated: 37
EndChar

StartChar: z
Encoding: 122 122 63
GlifName: z
Width: 1925
VWidth: 4730
Flags: HMW
LayerCount: 2
Fore
SplineSet
823 1872 m 2
 438 1872 229 1594 168 1180 c 1
 156 1180 l 1
 156 1884 l 1
 1798 1884 l 1
 1798 1872 l 1
 688 12 l 1
 1102 12 l 2
 1582 12 1790 246 1851 754 c 1
 1864 754 l 1
 1864 0 l 1
 41 0 l 1
 41 12 l 1
 1147 1872 l 1
 823 1872 l 2
EndSplineSet
Validated: 1
EndChar

StartChar: comma
Encoding: 44 44 65
GlifName: comma
Width: 1126
Flags: HMW
LayerCount: 2
Fore
SplineSet
164 323 m 0
 164 520 344 688 561 688 c 0
 782 688 970 500 970 139 c 0
 970 -270 647 -620 156 -620 c 1
 156 -610 l 1
 647 -610 1059 -229 932 348 c 1
 914 155 769 -40 539 -40 c 0
 301 -40 164 126 164 323 c 0
EndSplineSet
Validated: 33
EndChar

StartChar: exclam
Encoding: 33 33 67
GlifName: exclam
Width: 1556
Flags: HMW
LayerCount: 2
Fore
SplineSet
1138 2618 m 0
 1092 2020 779 1569 779 1057 c 1
 770 1057 l 1
 770 1569 456 2020 410 2618 c 0
 408 2646 410 2672 410 2696 c 0
 410 2925 521 3104 775 3104 c 0
 1029 3104 1143 2925 1143 2696 c 0
 1143 2672 1140 2646 1138 2618 c 0
EndSplineSet
Refer: 1 46 N 1 0 0 1 246 0 2
Validated: 1
EndChar

StartChar: quotesingle
Encoding: 39 39 70
GlifName: quotesingle
Width: 1064
Flags: HMW
LayerCount: 2
Fore
SplineSet
856 2708 m 24
 810 2400 537 2305 537 1855 c 1
 529 1855 l 1
 529 2305 254 2400 208 2708 c 24
 204 2736 204 2758 204 2782 c 0
 204 2983 353 3112 533 3112 c 0
 713 3112 860 2983 860 2782 c 0
 860 2758 860 2736 856 2708 c 24
EndSplineSet
Validated: 1
EndChar

StartChar: question
Encoding: 63 63 75
GlifName: question
Width: 2395
Flags: HMW
LayerCount: 2
Fore
SplineSet
1028 1465 m 1
 1405 1571 1532 1914 1532 2294 c 0
 1532 2680 1486 3086 1080 3086 c 0
 650 3086 304 2736 276 2488 c 1
 300 2556 419 2663 582 2663 c 0
 762 2663 917 2550 917 2355 c 0
 917 2140 766 2023 582 2023 c 0
 378 2023 246 2160 246 2379 c 0
 246 2735 632 3112 1172 3112 c 0
 1791 3112 2191 2786 2191 2294 c 0
 2191 1822 1716 1495 1036 1459 c 1
 1036 999 l 1
 1028 999 l 1
 1028 1465 l 1
EndSplineSet
Refer: 1 46 N 1 0 0 1 569 0 2
Validated: 1
EndChar

StartChar: parenleft
Encoding: 40 40 76
GlifName: parenleft
Width: 1523
Flags: HMW
LayerCount: 2
Fore
SplineSet
1450 -686 m 1
 1445 -696 l 1
 777 -410 266 378 266 1332 c 0
 266 2286 777 2990 1445 3276 c 1
 1450 3266 l 1
 1044 3000 901 2118 901 1332 c 0
 901 546 1044 -420 1450 -686 c 1
EndSplineSet
Validated: 1
EndChar

StartChar: at
Encoding: 64 64 79
GlifName: at
Width: 4136
VWidth: 4730
Flags: HMW
LayerCount: 2
Fore
SplineSet
2374 1463 m 0
 2374 838 2085 286 1614 286 c 0
 1270 286 1000 516 1000 942 c 0
 1000 1556 1448 2166 1938 2166 c 0
 2311 2166 2374 1799 2374 1463 c 0
2357 1418 m 0
 2357 1590 2351 2019 2132 2019 c 0
 1912 2019 1658 1453 1658 945 c 0
 1658 671 1720 437 1861 437 c 0
 2104 437 2357 912 2357 1418 c 0
2273 860 m 2
 2568 2130 l 1
 3182 2130 l 1
 2880 831 l 2
 2851 704 2726 344 2980 344 c 0
 3471 344 3900 935 3900 1642 c 0
 3900 2384 3428 3224 2396 3224 c 0
 1210 3224 238 2142 238 864 c 0
 238 -414 974 -864 1716 -864 c 0
 2380 -864 2864 -652 3204 -254 c 1
 3216 -262 l 1
 2872 -664 2384 -876 1716 -876 c 0
 966 -876 226 -426 226 864 c 0
 226 2146 1196 3236 2396 3236 c 0
 3432 3236 3912 2392 3912 1642 c 0
 3912 966 3531 278 2769 278 c 0
 2282 278 2215 606 2273 860 c 2
EndSplineSet
Validated: 37
EndChar

StartChar: dollar
Encoding: 36 36 80
GlifName: dollar
Width: 2436
Flags: HMW
LayerCount: 2
Fore
SplineSet
1317 3400 m 1
 1329 3400 l 1
 1329 -328 l 1
 1317 -328 l 1
 1317 3400 l 1
995 3400 m 1
 1007 3400 l 1
 1007 -328 l 1
 995 -328 l 1
 995 3400 l 1
2128 2556 m 1
 2069 2870 1681 3094 1276 3094 c 0
 924 3094 655 2883 655 2580 c 0
 655 1845 2274 2068 2274 901 c 0
 2274 327 1847 -62 1208 -62 c 0
 447 -62 112 328 112 635 c 0
 112 864 250 1032 471 1032 c 0
 634 1032 795 901 795 680 c 0
 795 475 613 373 453 373 c 0
 304 373 180 462 129 577 c 1
 163 309 492 -45 1188 -45 c 0
 1622 -45 1843 209 1843 574 c 0
 1843 1391 225 1086 225 2273 c 0
 225 2785 741 3112 1237 3112 c 0
 1721 3112 2151 2851 2151 2478 c 0
 2151 2249 2023 2101 1802 2101 c 0
 1639 2101 1478 2208 1478 2423 c 0
 1478 2622 1645 2740 1805 2740 c 0
 1948 2740 2069 2667 2128 2556 c 1
EndSplineSet
Validated: 5
EndChar

StartChar: numbersign
Encoding: 35 35 81
GlifName: numbersign
Width: 2580
Flags: HMW
LayerCount: 2
Fore
SplineSet
122 1028 m 1
 2334 1028 l 1
 2334 1016 l 1
 122 1016 l 1
 122 1028 l 1
246 2118 m 1
 2458 2118 l 1
 2458 2106 l 1
 246 2106 l 1
 246 2118 l 1
1856 3088 m 1
 1868 3092 l 1
 1458 -20 l 1
 1446 -24 l 1
 1856 3088 l 1
1082 3092 m 1
 1094 3092 l 1
 684 -20 l 1
 672 -20 l 1
 1082 3092 l 1
EndSplineSet
Validated: 5
EndChar

StartChar: slash
Encoding: 47 47 82
GlifName: slash
Width: 2128
Flags: HMW
LayerCount: 2
Fore
SplineSet
1954 3194 m 1
 1966 3194 l 1
 176 -614 l 1
 164 -614 l 1
 1954 3194 l 1
EndSplineSet
Validated: 1
EndChar

StartChar: percent
Encoding: 37 37 83
GlifName: percent
Width: 4177
Flags: HMW
LayerCount: 2
Fore
SplineSet
2867 860 m 0
 2867 301 2933 -28 3134 -28 c 0
 3335 -28 3400 301 3400 860 c 0
 3400 1419 3335 1748 3134 1748 c 0
 2933 1748 2867 1419 2867 860 c 0
2232 860 m 0
 2232 1446 2672 1762 3134 1762 c 0
 3596 1762 4034 1446 4034 860 c 0
 4034 274 3514 -40 3134 -40 c 0
 2672 -40 2232 274 2232 860 c 0
3161 3072 m 1
 3175 3072 l 1
 1017 0 l 1
 1003 0 l 1
 3161 3072 l 1
778 2212 m 0
 778 1653 843 1324 1044 1324 c 0
 1245 1324 1311 1653 1311 2212 c 0
 1311 2771 1245 3100 1044 3100 c 0
 843 3100 778 2771 778 2212 c 0
144 2212 m 0
 144 2798 582 3112 1044 3112 c 0
 1506 3112 1946 2798 1946 2212 c 0
 1946 1626 1424 1310 1044 1310 c 0
 582 1310 144 1626 144 2212 c 0
EndSplineSet
Validated: 1
EndChar

StartChar: hyphen
Encoding: 45 45 85
GlifName: hyphen
Width: 1474
Flags: HMW
LayerCount: 2
Fore
SplineSet
246 1130 m 1
 1228 1130 l 1
 1228 1122 l 1
 246 1122 l 1
 246 1130 l 1
EndSplineSet
Validated: 1
EndChar

StartChar: plus
Encoding: 43 43 87
GlifName: plus
Width: 2170
Flags: HMW
LayerCount: 2
Fore
SplineSet
1082 450 m 1
 1082 2130 l 1
 1090 2130 l 1
 1090 450 l 1
 1082 450 l 1
246 1298 m 1
 1926 1298 l 1
 1926 1290 l 1
 246 1290 l 1
 246 1298 l 1
EndSplineSet
Validated: 5
EndChar

StartChar: less
Encoding: 60 60 89
GlifName: less
Width: 2292
Flags: HMW
LayerCount: 2
Fore
SplineSet
246 1586 m 1
 246 1594 l 1
 2048 2458 l 1
 2048 2446 l 1
 246 1586 l 1
246 1582 m 1
 246 1590 l 1
 2048 730 l 1
 2048 716 l 1
 246 1582 l 1
EndSplineSet
Validated: 5
EndChar

StartChar: backslash
Encoding: 92 92 91
GlifName: backslash
Width: 2128
Flags: HMW
LayerCount: 2
Fore
SplineSet
176 3194 m 1
 1966 -614 l 1
 1954 -614 l 1
 164 3194 l 1
 176 3194 l 1
EndSplineSet
Validated: 1
EndChar

StartChar: bracketleft
Encoding: 91 91 92
GlifName: bracketleft
Width: 1453
Flags: HMW
LayerCount: 2
Fore
SplineSet
1331 -614 m 1
 226 -614 l 1
 226 -602 l 1
 1331 -602 l 1
 1331 -614 l 1
1331 3182 m 1
 226 3182 l 1
 226 3194 l 1
 1331 3194 l 1
 1331 3182 l 1
840 3194 m 1
 840 -614 l 1
 226 -614 l 1
 226 3194 l 1
 840 3194 l 1
EndSplineSet
Validated: 5
EndChar

StartChar: braceleft
Encoding: 123 123 93
GlifName: braceleft
Width: 1359
VWidth: 4730
Flags: HMW
LayerCount: 2
Fore
SplineSet
1237 3194 m 1
 1237 3182 l 1
 983 3182 852 2908 852 2650 c 0
 852 2379 991 2196 991 1827 c 0
 991 1487 775 1372 226 1290 c 1
 226 1298 l 1
 348 1338 472 1454 472 1622 c 0
 472 1880 226 2064 226 2585 c 0
 226 2990 459 3194 1237 3194 c 1
1237 -614 m 1
 459 -614 226 -405 226 0 c 0
 226 521 472 704 472 962 c 0
 472 1130 348 1246 226 1286 c 1
 226 1294 l 1
 775 1212 991 1098 991 758 c 0
 991 389 852 205 852 -66 c 0
 852 -324 983 -602 1237 -602 c 1
 1237 -614 l 1
EndSplineSet
Validated: 5
EndChar

StartChar: bar
Encoding: 124 124 96
GlifName: bar
Width: 942
VWidth: 4730
Flags: HMW
LayerCount: 2
Fore
SplineSet
466 3194 m 1
 476 3194 l 1
 476 -1024 l 1
 466 -1024 l 1
 466 3194 l 1
EndSplineSet
Validated: 1
EndChar

StartChar: cent
Encoding: 162 162 98
GlifName: cent
Width: 2094
VWidth: 4730
Flags: HMW
LayerCount: 2
Fore
SplineSet
1162 2274 m 1
 1162 -348 l 1
 1149 -348 l 1
 1149 2274 l 1
 1162 2274 l 1
EndSplineSet
Refer: 40 99 N 1 0 0 1 0 0 2
Validated: 5
EndChar

StartChar: sterling
Encoding: 163 163 99
GlifName: sterling
Width: 2686
VWidth: 4730
Flags: HMW
LayerCount: 2
Fore
SplineSet
2589 889 m 1
 2589 90 2298 -122 1831 -122 c 0
 1269 -122 1024 122 766 122 c 0
 598 122 352 40 312 -82 c 1
 300 -82 l 1
 361 222 713 643 1114 643 c 0
 1483 643 1666 504 1937 504 c 0
 2234 504 2577 553 2577 889 c 1
 2589 889 l 1
1904 1640 m 1
 1904 1630 l 1
 62 1630 l 1
 62 1640 l 1
 1904 1640 l 1
402 2252 m 0
 402 2826 851 3112 1572 3112 c 0
 2236 3112 2588 2726 2588 2390 c 0
 2588 2161 2437 2003 2243 2003 c 0
 2059 2003 1868 2130 1868 2355 c 0
 1868 2560 2045 2703 2225 2703 c 0
 2411 2703 2507 2579 2548 2513 c 1
 2478 2797 2173 3082 1656 3082 c 0
 1230 3082 1102 2741 1102 2396 c 0
 1102 1990 1332 1803 1332 1454 c 0
 1332 696 254 696 308 -82 c 1
 294 -82 l 1
 216 488 734 808 734 1070 c 0
 734 1536 402 1780 402 2252 c 0
EndSplineSet
Validated: 37
EndChar

StartChar: section
Encoding: 167 167 101
GlifName: section
Width: 1951
VWidth: 4730
Flags: HMW
LayerCount: 2
Fore
SplineSet
553 2669 m 0
 553 2214 1792 2213 1792 1587 c 0
 1792 1292 1563 1190 1362 1063 c 1
 1325 1075 l 1
 1429 1155 1517 1202 1517 1333 c 0
 1517 1787 274 1703 274 2449 c 0
 274 2875 632 3112 1022 3112 c 0
 1362 3112 1775 2975 1775 2541 c 0
 1775 2353 1653 2206 1468 2206 c 0
 1305 2206 1186 2329 1186 2497 c 0
 1186 2649 1322 2777 1481 2777 c 0
 1582 2777 1661 2728 1698 2685 c 1
 1633 2935 1335 3066 1022 3066 c 0
 787 3066 553 2886 553 2669 c 0
1788 664 m 0
 1788 238 1450 -40 938 -40 c 0
 578 -40 122 102 122 537 c 0
 122 725 245 872 430 872 c 0
 593 872 713 750 713 582 c 0
 713 430 579 309 420 309 c 0
 299 309 221 377 197 420 c 1
 253 144 605 6 938 6 c 0
 1319 6 1479 237 1479 413 c 0
 1479 868 197 828 197 1434 c 0
 197 1749 438 1922 598 2028 c 1
 643 2028 l 1
 588 1978 498 1880 498 1749 c 0
 498 1295 1788 1410 1788 664 c 0
EndSplineSet
Validated: 5
EndChar

StartChar: asciitilde
Encoding: 126 126 104
GlifName: asciitilde
Width: 2818
VWidth: 4730
Flags: HMW
LayerCount: 2
Fore
SplineSet
831 1729 m 0
 613 1729 422 1637 422 1404 c 1
 410 1404 l 1
 410 1876 655 2150 1020 2150 c 0
 1470 2150 1531 1765 1945 1765 c 0
 2203 1765 2396 1855 2396 2088 c 1
 2408 2088 l 1
 2408 1616 2163 1343 1798 1343 c 0
 1278 1343 1273 1729 831 1729 c 0
EndSplineSet
Validated: 1
EndChar

StartChar: copyright
Encoding: 169 169 105
GlifName: copyright
Width: 3562
Flags: HMW
LayerCount: 2
Fore
SplineSet
204 1536 m 0
 204 2408 910 3112 1782 3112 c 0
 2654 3112 3358 2408 3358 1536 c 0
 3358 664 2654 -40 1782 -40 c 0
 910 -40 204 664 204 1536 c 0
218 1536 m 0
 218 672 918 -28 1782 -28 c 0
 2646 -28 3346 672 3346 1536 c 0
 3346 2400 2646 3100 1782 3100 c 0
 918 3100 218 2400 218 1536 c 0
EndSplineSet
Refer: 14 67 N 0.6 0 0 0.6 827 614 2
Validated: 524293
EndChar

StartChar: registered
Encoding: 174 174 106
GlifName: registered
Width: 3562
Flags: HMW
LayerCount: 2
Fore
SplineSet
204 1536 m 0
 204 2408 910 3112 1782 3112 c 0
 2654 3112 3358 2408 3358 1536 c 0
 3358 664 2654 -40 1782 -40 c 0
 910 -40 204 664 204 1536 c 0
218 1536 m 0
 218 672 918 -28 1782 -28 c 0
 2646 -28 3346 672 3346 1536 c 0
 3346 2400 2646 3100 1782 3100 c 0
 918 3100 218 2400 218 1536 c 0
EndSplineSet
Refer: 29 82 N 0.6 0 0 0.6 913 606 2
Validated: 524293
EndChar

StartChar: logicalnot
Encoding: 172 172 107
GlifName: logicalnot
Width: 1990
Flags: HMW
LayerCount: 2
Fore
SplineSet
1732 2506 m 1
 246 2506 l 1
 246 2520 l 1
 1744 2520 l 1
 1744 1692 l 1
 1732 1692 l 1
 1732 2506 l 1
EndSplineSet
Validated: 1
EndChar

StartChar: guillemotleft
Encoding: 171 171 108
GlifName: guillemotleft
Width: 2969
Flags: HMW
LayerCount: 2
Fore
SplineSet
2011 1590 m 1
 2728 598 l 1
 2723 594 l 1
 1250 1556 l 1
 1250 1618 l 1
 2723 2580 l 1
 2728 2576 l 1
 2011 1590 l 1
823 1590 m 1
 1581 598 l 1
 1577 594 l 1
 102 1556 l 1
 102 1618 l 1
 1577 2580 l 1
 1581 2576 l 1
 823 1590 l 1
EndSplineSet
Validated: 1
EndChar

StartChar: mu
Encoding: 181 181 111
GlifName: mu
Width: 2338
VWidth: 4730
Flags: HMW
LayerCount: 2
Fore
SplineSet
1036 -504 m 0
 1172 -504 1278 -622 1278 -778 c 0
 1278 -938 1193 -1064 893 -1064 c 0
 607 -1064 360 -864 360 -496 c 2
 360 1314 l 1
 370 1314 l 1
 370 -496 l 2
 370 -856 619 -1090 979 -1044 c 1
 979 -1044 l 1
 881 -1008 790 -914 790 -762 c 0
 790 -626 900 -504 1036 -504 c 0
EndSplineSet
Refer: 58 117 N 1 0 0 1 0 0 2
Validated: 37
EndChar

StartChar: asciicircum
Encoding: 94 94 113
GlifName: asciicircum
Width: 2232
Flags: HMW
LayerCount: 2
Fore
SplineSet
1114 2962 m 1
 418 2576 l 1
 410 2580 l 1
 984 3154 l 1
 1250 3154 l 1
 1822 2580 l 1
 1814 2576 l 1
 1114 2962 l 1
EndSplineSet
Validated: 1
EndChar

StartChar: degree
Encoding: 176 176 115
GlifName: degree
Width: 1310
Flags: HMW
LayerCount: 2
Fore
SplineSet
164 2786 m 0
 164 3056 386 3276 656 3276 c 0
 926 3276 1146 3056 1146 2786 c 0
 1146 2516 926 2294 656 2294 c 0
 386 2294 164 2516 164 2786 c 0
254 2786 m 0
 254 2556 426 2384 656 2384 c 0
 886 2384 1056 2556 1056 2786 c 0
 1056 3016 886 3186 656 3186 c 0
 426 3186 254 3016 254 2786 c 0
EndSplineSet
Validated: 1
EndChar

StartChar: onequarter
Encoding: 188 188 119
GlifName: onequarter
Width: 2747
Flags: HMW
LayerCount: 2
Fore
SplineSet
2142 2662 m 1
 2154 2662 l 1
 176 -410 l 1
 164 -410 l 1
 2142 2662 l 1
EndSplineSet
Refer: 6 52 N 0.6 0 0 0.6 1106 -422 2
Refer: 3 49 N 0.6 0 0 0.6 -32 1458 2
Validated: 524293
EndChar

StartChar: onehalf
Encoding: 189 189 120
GlifName: onehalf
Width: 2867
Flags: HMW
LayerCount: 2
Fore
SplineSet
2142 2662 m 1
 2154 2662 l 1
 176 -410 l 1
 164 -410 l 1
 2142 2662 l 1
EndSplineSet
Refer: 4 50 N 0.6 0 0 0.6 1396 -414 2
Refer: 3 49 N 0.6 0 0 0.6 -32 1458 2
Validated: 524293
EndChar

StartChar: threequarters
Encoding: 190 190 121
GlifName: threequarters
Width: 2993
Flags: HMW
LayerCount: 2
Fore
SplineSet
2388 2662 m 1
 2400 2662 l 1
 422 -410 l 1
 410 -410 l 1
 2388 2662 l 1
EndSplineSet
Refer: 5 51 N 0.6 0 0 0.6 20 1450 2
Refer: 6 52 N 0.6 0 0 0.6 1352 -422 2
Validated: 524293
EndChar

StartChar: grave
Encoding: 96 96 123
GlifName: grave
Width: 1678
Flags: HMW
LayerCount: 2
Fore
SplineSet
491 2870 m 2
 352 2847 226 2953 226 3092 c 0
 226 3231 376 3373 533 3310 c 2
 1440 2974 l 1
 1436 2966 l 1
 491 2870 l 2
EndSplineSet
Validated: 33
EndChar

StartChar: acute
Encoding: 180 180 124
GlifName: acute
Width: 1678
Flags: HMW
LayerCount: 2
Fore
SplineSet
1188 2870 m 2
 244 2966 l 1
 240 2974 l 1
 1147 3310 l 2
 1304 3373 1454 3231 1454 3092 c 0
 1454 2953 1327 2847 1188 2870 c 2
EndSplineSet
Validated: 33
EndChar

StartChar: cedilla
Encoding: 184 184 128
GlifName: cedilla
Width: 2252
Flags: HMW
LayerCount: 2
Fore
SplineSet
1266 -574 m 0
 1266 -356 1093 -324 888 -324 c 1
 1258 168 l 1
 1274 168 l 1
 1028 -160 l 1
 1423 -172 1720 -262 1720 -492 c 0
 1720 -696 1524 -867 905 -867 c 1
 905 -854 l 1
 1147 -854 1266 -734 1266 -574 c 0
EndSplineSet
Validated: 1
EndChar

StartChar: divide
Encoding: 247 247 131
GlifName: divide
Width: 2497
Flags: HMW
LayerCount: 2
Fore
SplineSet
184.5 1622 m 1
 2312 1622 l 1
 2312 1614 l 1
 184.5 1614 l 1
 184.5 1622 l 1
881 798 m 0
 881 1001 1047 1167 1250 1167 c 0
 1453 1167 1618 1001 1618 798 c 0
 1618 595 1453 431 1250 431 c 0
 1047 431 881 595 881 798 c 0
881 2375 m 0
 881 2578 1047 2744 1250 2744 c 0
 1453 2744 1618 2578 1618 2375 c 0
 1618 2172 1453 2008 1250 2008 c 0
 1047 2008 881 2172 881 2375 c 0
EndSplineSet
Validated: 524289
EndChar

StartChar: ring
Encoding: 730 730 271
GlifName: ring
Width: 1310
VWidth: 0
Flags: HMW
LayerCount: 2
Fore
SplineSet
245 2786 m 0
 245 2994 407 3154 656 3154 c 0
 905 3154 1065 2994 1065 2786 c 0
 1065 2578 905 2416 656 2416 c 0
 407 2416 245 2578 245 2786 c 0
491 2786 m 0
 491 2573 525 2428 656 2428 c 0
 787 2428 819 2573 819 2786 c 0
 819 2999 787 3142 656 3142 c 0
 525 3142 491 2999 491 2786 c 0
EndSplineSet
Validated: 1
EndChar

StartChar: tilde
Encoding: 732 732 272
GlifName: tilde
Width: 1834
VWidth: 0
Flags: HMW
LayerCount: 2
Fore
SplineSet
483 2679 m 0
 329 2679 218 2588 218 2437 c 1
 204 2437 l 1
 204 2785 348 3039 610 3039 c 0
 937 3039 1081 2716 1352 2716 c 0
 1526 2716 1618 2806 1618 2957 c 1
 1630 2957 l 1
 1630 2567 1569 2355 1266 2355 c 0
 951 2355 782 2679 483 2679 c 0
EndSplineSet
Validated: 1
EndChar

StartChar: AE
Encoding: 198 198 274
GlifName: A_E_
Width: 4280
Flags: HMW
LayerCount: 2
Fore
SplineSet
2150 3072 m 1
 2166 3072 l 1
 452 0 l 1
 436 0 l 1
 2150 3072 l 1
62 12 m 1
 962 12 l 1
 962 0 l 1
 62 0 l 1
 62 12 l 1
1008 1008 m 1
 2192 1008 l 1
 2192 1000 l 1
 1008 1000 l 1
 1008 1008 l 1
2150 3072 m 1
 2786 3072 l 1
 2786 0 l 1
 2150 0 l 1
 2150 3072 l 1
2150 3072 m 1
 4116 3072 l 1
 4116 2232 l 1
 4104 2232 l 1
 4043 2670 3736 3060 3277 3060 c 2
 2150 3060 l 1
 2150 3072 l 1
4158 0 m 1
 1782 0 l 1
 1782 12 l 1
 3235 12 l 2
 3776 12 4084 402 4145 922 c 1
 4158 922 l 1
 4158 0 l 1
3470 1077 m 1
 3409 1351 3163 1586 2929 1586 c 2
 2683 1586 l 1
 2683 1594 l 1
 2929 1594 l 2
 3163 1594 3409 1807 3470 2081 c 1
 3482 2081 l 1
 3482 1077 l 1
 3470 1077 l 1
EndSplineSet
Validated: 5
EndChar

StartChar: ae
Encoding: 230 230 277
GlifName: ae
Width: 3411
VWidth: 4730
Flags: HMW
LayerCount: 2
Fore
SplineSet
286 1479 m 0
 286 1743 644 1916 1057 1916 c 0
 1589 1916 1807 1623 1807 1250 c 1
 1786 742 l 1
 1786 234 1377 -40 902 -40 c 0
 455 -40 144 117 144 462 c 0
 144 806 458 1051 1040 1051 c 2
 1671 1051 l 1
 1671 1040 l 1
 1184 1040 l 2
 934 1040 766 788 766 493 c 0
 766 219 855 -20 1019 -20 c 0
 1191 -20 1335 266 1335 639 c 2
 1335 1250 l 2
 1335 1524 1276 1894 948 1894 c 0
 739 1894 508 1804 408 1702 c 1
 699 1843 946 1680 946 1487 c 0
 946 1303 766 1192 602 1192 c 0
 418 1192 286 1311 286 1479 c 0
2697 1055 m 1
 2693 1434 2668 1912 2406 1912 c 0
 2123 1912 2048 1449 2048 983 c 0
 2048 517 2130 -10 2515 -10 c 0
 2915 -10 3193 240 3297 586 c 1
 3309 586 l 1
 3203 230 2914 -40 2419 -40 c 0
 1903 -40 1536 307 1536 942 c 0
 1536 1577 1890 1926 2406 1926 c 0
 3016 1926 3305 1490 3305 1044 c 1
 1829 1044 l 1
 1829 1055 l 1
 2697 1055 l 1
EndSplineSet
Validated: 37
EndChar

StartChar: perthousand
Encoding: 8240 8240 285
GlifName: perthousand
Width: 6184
Flags: HMW
LayerCount: 2
Fore
SplineSet
4874 860 m 0
 4874 301 4939 -28 5140 -28 c 0
 5341 -28 5407 301 5407 860 c 0
 5407 1419 5341 1748 5140 1748 c 0
 4939 1748 4874 1419 4874 860 c 0
4240 860 m 0
 4240 1446 4678 1762 5140 1762 c 0
 5602 1762 6042 1446 6042 860 c 0
 6042 274 5520 -40 5140 -40 c 0
 4678 -40 4240 274 4240 860 c 0
2867 860 m 0
 2867 301 2933 -28 3134 -28 c 0
 3335 -28 3400 301 3400 860 c 0
 3400 1419 3335 1748 3134 1748 c 0
 2933 1748 2867 1419 2867 860 c 0
2232 860 m 0
 2232 1446 2672 1762 3134 1762 c 0
 3596 1762 4034 1446 4034 860 c 0
 4034 274 3514 -40 3134 -40 c 0
 2672 -40 2232 274 2232 860 c 0
3161 3072 m 1
 3175 3072 l 1
 1017 0 l 1
 1003 0 l 1
 3161 3072 l 1
778 2212 m 0
 778 1653 843 1324 1044 1324 c 0
 1245 1324 1311 1653 1311 2212 c 0
 1311 2771 1245 3100 1044 3100 c 0
 843 3100 778 2771 778 2212 c 0
144 2212 m 0
 144 2798 582 3112 1044 3112 c 0
 1506 3112 1946 2798 1946 2212 c 0
 1946 1626 1424 1310 1044 1310 c 0
 582 1310 144 1626 144 2212 c 0
EndSplineSet
Validated: 1
EndChar

StartChar: uni2031
Encoding: 8241 8241 286
GlifName: uni2031
Width: 8211
Flags: HMW
LayerCount: 2
Fore
SplineSet
6902 860 m 0
 6902 301 6967 -28 7168 -28 c 0
 7369 -28 7435 301 7435 860 c 0
 7435 1419 7369 1748 7168 1748 c 0
 6967 1748 6902 1419 6902 860 c 0
6267 860 m 0
 6267 1446 6706 1762 7168 1762 c 0
 7630 1762 8069 1446 8069 860 c 0
 8069 274 7548 -40 7168 -40 c 0
 6706 -40 6267 274 6267 860 c 0
4874 860 m 0
 4874 301 4939 -28 5140 -28 c 0
 5341 -28 5407 301 5407 860 c 0
 5407 1419 5341 1748 5140 1748 c 0
 4939 1748 4874 1419 4874 860 c 0
4240 860 m 0
 4240 1446 4678 1762 5140 1762 c 0
 5602 1762 6042 1446 6042 860 c 0
 6042 274 5520 -40 5140 -40 c 0
 4678 -40 4240 274 4240 860 c 0
2867 860 m 0
 2867 301 2933 -28 3134 -28 c 0
 3335 -28 3400 301 3400 860 c 0
 3400 1419 3335 1748 3134 1748 c 0
 2933 1748 2867 1419 2867 860 c 0
2232 860 m 0
 2232 1446 2672 1762 3134 1762 c 0
 3596 1762 4034 1446 4034 860 c 0
 4034 274 3514 -40 3134 -40 c 0
 2672 -40 2232 274 2232 860 c 0
3161 3072 m 1
 3175 3072 l 1
 1017 0 l 1
 1003 0 l 1
 3161 3072 l 1
778 2212 m 0
 778 1653 843 1324 1044 1324 c 0
 1245 1324 1311 1653 1311 2212 c 0
 1311 2771 1245 3100 1044 3100 c 0
 843 3100 778 2771 778 2212 c 0
144 2212 m 0
 144 2798 582 3112 1044 3112 c 0
 1506 3112 1946 2798 1946 2212 c 0
 1946 1626 1424 1310 1044 1310 c 0
 582 1310 144 1626 144 2212 c 0
EndSplineSet
Validated: 1
EndChar

StartChar: uniFB00
Encoding: 64256 64256 290
GlifName: uniF_B_00
Width: 2866
VWidth: 4730
Flags: HMW
LayerCount: 2
Fore
SplineSet
51 12 m 1
 2735 12 l 1
 2735 0 l 1
 51 0 l 1
 51 12 l 1
51 1884 m 1
 2816 1884 l 1
 2816 1872 l 1
 51 1872 l 1
 51 1884 l 1
2048 2511 m 1
 2013 2695 1768 2894 1493 2894 c 0
 1165 2894 972 2528 972 2008 c 2
 972 0 l 1
 420 0 l 1
 420 1892 l 2
 420 2469 858 2908 1472 2908 c 0
 1824 2908 2079 2654 2079 2421 c 0
 2079 2212 1947 2085 1763 2085 c 0
 1599 2085 1431 2192 1431 2393 c 0
 1431 2594 1569 2705 1741 2705 c 0
 1897 2705 2032 2564 2048 2511 c 1
3230 2730 m 1
 3202 2904 3021 3098 2711 3098 c 0
 2383 3098 2253 2732 2253 2212 c 2
 2253 0 l 1
 1700 0 l 1
 1700 2098 l 2
 1700 2675 2097 3112 2691 3112 c 0
 3043 3112 3256 2879 3256 2646 c 0
 3256 2437 3125 2310 2941 2310 c 0
 2777 2310 2609 2416 2609 2617 c 0
 2609 2818 2764 2931 2936 2931 c 0
 3069 2931 3191 2842 3230 2730 c 1
EndSplineSet
Validated: 5
Ligature2: "'liga' Standard Ligatures lookup 0-1" f f
LCarets2: 1 0
EndChar

StartChar: uniFB01
Encoding: 64257 64257 291
GlifName: uniF_B_01
Width: 2569
VWidth: 4730
Flags: HMW
LayerCount: 2
Fore
SplineSet
420 2098 m 2
 420 2696 837 3112 1554 3112 c 0
 1988 3112 2222 2879 2222 2625 c 0
 2222 2416 2091 2289 1907 2289 c 0
 1739 2289 1575 2398 1575 2593 c 0
 1575 2790 1728 2907 1900 2907 c 0
 2045 2907 2161 2822 2198 2693 c 1
 2157 2926 1931 3100 1554 3100 c 0
 1104 3100 972 2732 972 2212 c 2
 972 0 l 1
 420 0 l 1
 420 2098 l 2
51 12 m 1
 2499 12 l 1
 2499 0 l 1
 51 0 l 1
 51 12 l 1
1638 1872 m 1
 51 1872 l 1
 51 1884 l 1
 2212 1884 l 1
 2212 0 l 1
 1638 0 l 1
 1638 1872 l 1
EndSplineSet
Validated: 5
Ligature2: "'liga' Standard Ligatures lookup 0-1" f i
LCarets2: 1 0
EndChar

StartChar: uniFB02
Encoding: 64258 64258 292
GlifName: uniF_B_02
Width: 2754
VWidth: 4730
Flags: HMW
LayerCount: 2
Fore
SplineSet
51 12 m 1
 2714 12 l 1
 2714 0 l 1
 51 0 l 1
 51 12 l 1
51 1884 m 1
 1536 1884 l 1
 1536 1872 l 1
 51 1872 l 1
 51 1884 l 1
1812 2990 m 1
 2386 3154 l 1
 2386 0 l 1
 1812 0 l 1
 1812 2990 l 1
1977 2695 m 1
 1953 2883 1770 3096 1452 3096 c 0
 1085 3096 972 2732 972 2212 c 2
 972 0 l 1
 420 0 l 1
 420 2098 l 2
 420 2675 838 3112 1432 3112 c 0
 1784 3112 1997 2879 1997 2625 c 0
 1997 2416 1865 2289 1681 2289 c 0
 1517 2289 1349 2388 1349 2593 c 0
 1349 2798 1488 2911 1669 2911 c 0
 1882 2911 1973 2695 1977 2695 c 1
EndSplineSet
Validated: 5
Ligature2: "'liga' Standard Ligatures lookup 0-1" f l
LCarets2: 1 0
EndChar

StartChar: uniFB03
Encoding: 64259 64259 293
GlifName: uniF_B_03
Width: 3808
VWidth: 4730
Flags: HMW
LayerCount: 2
Fore
SplineSet
1659 2098 m 2
 1659 2696 2077 3112 2794 3112 c 0
 3228 3112 3461 2879 3461 2625 c 0
 3461 2416 3330 2289 3146 2289 c 0
 2978 2289 2814 2398 2814 2593 c 0
 2814 2790 2962 2907 3134 2907 c 0
 3308 2907 3409 2810 3436 2693 c 1
 3393 2924 3175 3098 2794 3098 c 0
 2344 3098 2212 2732 2212 2212 c 2
 2212 0 l 1
 1659 0 l 1
 1659 2098 l 2
51 12 m 1
 3738 12 l 1
 3738 0 l 1
 51 0 l 1
 51 12 l 1
420 1892 m 2
 420 2465 858 2908 1472 2908 c 0
 1824 2908 2079 2654 2079 2421 c 0
 2079 2212 1947 2085 1763 2085 c 0
 1599 2085 1431 2192 1431 2393 c 0
 1431 2594 1569 2705 1741 2705 c 0
 1897 2705 2012 2600 2028 2547 c 1
 1973 2713 1772 2892 1493 2892 c 0
 1165 2892 972 2528 972 2008 c 2
 972 0 l 1
 420 0 l 1
 420 1892 l 2
2878 1872 m 1
 51 1872 l 1
 51 1884 l 1
 3451 1884 l 1
 3451 0 l 1
 2878 0 l 1
 2878 1872 l 1
EndSplineSet
Validated: 5
Ligature2: "'liga' Standard Ligatures lookup 0-1" f f i
LCarets2: 2 0 0
EndChar

StartChar: uniFB04
Encoding: 64260 64260 294
GlifName: uniF_B_04
Width: 4054
VWidth: 4730
Flags: HMW
LayerCount: 2
Fore
SplineSet
51 12 m 1
 3994 12 l 1
 3994 0 l 1
 51 0 l 1
 51 12 l 1
51 1884 m 1
 2816 1884 l 1
 2816 1872 l 1
 51 1872 l 1
 51 1884 l 1
3093 2990 m 1
 3666 3154 l 1
 3666 0 l 1
 3093 0 l 1
 3093 2990 l 1
2030 2549 m 1
 1975 2715 1768 2894 1493 2894 c 0
 1165 2894 972 2528 972 2008 c 2
 972 0 l 1
 420 0 l 1
 420 1892 l 2
 420 2467 858 2908 1472 2908 c 0
 1824 2908 2079 2654 2079 2421 c 0
 2079 2212 1947 2085 1763 2085 c 0
 1599 2085 1431 2192 1431 2393 c 0
 1431 2594 1569 2705 1741 2705 c 0
 1876 2705 2014 2602 2030 2549 c 1
3250 2714 m 1
 3211 2927 3000 3100 2732 3100 c 0
 2365 3100 2253 2732 2253 2212 c 2
 2253 0 l 1
 1700 0 l 1
 1700 2098 l 2
 1700 2675 2118 3112 2712 3112 c 0
 3064 3112 3277 2879 3277 2625 c 0
 3277 2416 3146 2289 2962 2289 c 0
 2798 2289 2629 2388 2629 2593 c 0
 2629 2798 2768 2911 2949 2911 c 0
 3162 2911 3246 2714 3250 2714 c 1
EndSplineSet
Validated: 5
Ligature2: "'liga' Standard Ligatures lookup 0-1" f f l
LCarets2: 2 0 0
EndChar

StartChar: ogonek
Encoding: 731 731 295
GlifName: ogonek
Width: 2252
Flags: HMW
LayerCount: 2
Fore
SplineSet
1641 -503 m 1
 1579 -617 1480 -803 1128 -803 c 0
 858 -803 625 -697 625 -451 c 0
 625 -123 1027 84 1338 176 c 1
 1344 168 l 1
 1258 119 1169 -71 1169 -348 c 0
 1169 -581 1267 -709 1386 -709 c 0
 1505 -709 1563 -621 1633 -499 c 1
 1641 -503 l 1
EndSplineSet
Validated: 1
EndChar

StartChar: dotlessi
Encoding: 305 305 296
GlifName: dotlessi
Width: 1309
VWidth: 4730
Flags: HMW
LayerCount: 2
Fore
SplineSet
82 12 m 1
 1229 12 l 1
 1229 0 l 1
 82 0 l 1
 82 12 l 1
368 1872 m 1
 82 1872 l 1
 82 1884 l 1
 942 1884 l 1
 942 0 l 1
 368 0 l 1
 368 1872 l 1
EndSplineSet
Validated: 5
EndChar

StartChar: uni0237
Encoding: 567 567 297
GlifName: uni0237
Width: 1334
VWidth: 4730
Flags: HMW
LayerCount: 2
Fore
SplineSet
1024 1884 m 1
 1024 -50 l 2
 1024 -586 708 -1064 135 -1064 c 0
 -238 -1064 -492 -846 -492 -575 c 0
 -492 -368 -334 -241 -156 -241 c 0
 8 -241 176 -340 176 -545 c 0
 176 -740 37 -857 -174 -857 c 0
 -342 -857 -451 -744 -471 -627 c 1
 -463 -840 -229 -1044 84 -1044 c 0
 514 -1044 441 -432 441 88 c 2
 451 1872 l 1
 82 1872 l 1
 82 1884 l 1
 1024 1884 l 1
EndSplineSet
Validated: 33
EndChar

StartChar: kgreenlandic
Encoding: 312 312 306
GlifName: kgreenlandic
Width: 2625
VWidth: 4730
Flags: HMW
LayerCount: 2
Fore
SplineSet
2429 0 m 1
 1720 0 l 1
 909 1090 l 1
 2024 1884 l 1
 2040 1884 l 1
 1350 1380 l 1
 2429 0 l 1
1429 12 m 1
 2584 12 l 1
 2584 0 l 1
 1429 0 l 1
 1429 12 l 1
2384 1872 m 1
 1470 1872 l 1
 1470 1884 l 1
 2384 1884 l 1
 2384 1872 l 1
82 12 m 1
 1249 12 l 1
 1249 0 l 1
 82 0 l 1
 82 12 l 1
451 1872 m 1
 82 1872 l 1
 82 1884 l 1
 1024 1884 l 1
 1024 0 l 1
 451 0 l 1
 451 1872 l 1
EndSplineSet
Validated: 5
EndChar

StartChar: breve
Encoding: 728 728 307
GlifName: breve
Width: 1228
VWidth: 4730
Flags: HMW
LayerCount: 2
Fore
SplineSet
136 3108 m 1
 136 2918 393 2847 615 2847 c 0
 837 2847 1094 2918 1094 3108 c 1
 1106 3108 l 1
 1106 2715 963 2457 615 2457 c 0
 267 2457 122 2715 122 3108 c 1
 136 3108 l 1
EndSplineSet
Validated: 1
EndChar

StartChar: thorn
Encoding: 254 254 318
GlifName: thorn
Width: 2551
VWidth: 4730
Flags: HMW
LayerCount: 2
Fore
SplineSet
909 942 m 0
 909 1564 1141 1922 1561 1922 c 0
 2007 1922 2429 1556 2429 942 c 0
 2429 328 2007 -40 1561 -40 c 0
 1143 -40 909 320 909 942 c 0
921 942 m 0
 921 312 1175 10 1435 10 c 0
 1677 10 1774 355 1774 942 c 0
 1774 1529 1680 1870 1438 1870 c 0
 1178 1870 921 1572 921 942 c 0
62 -1012 m 1
 1209 -1012 l 1
 1209 -1024 l 1
 62 -1024 l 1
 62 -1012 l 1
348 3060 m 1
 62 3060 l 1
 62 3072 l 1
 921 3072 l 1
 921 -1024 l 1
 348 -1024 l 1
 348 3060 l 1
EndSplineSet
Validated: 5
EndChar

StartChar: Thorn
Encoding: 222 222 319
GlifName: T_horn
Width: 2744
Flags: HMW
LayerCount: 2
Fore
SplineSet
430 3072 m 1
 1065 3072 l 1
 1065 0 l 1
 430 0 l 1
 430 3072 l 1
62 12 m 1
 1434 12 l 1
 1434 0 l 1
 62 0 l 1
 62 12 l 1
62 3072 m 1
 1434 3072 l 1
 1434 3060 l 1
 62 3060 l 1
 62 3072 l 1
1516 738 m 2
 983 738 l 1
 983 750 l 1
 1372 750 l 2
 1766 750 1905 1234 1905 1598 c 0
 1905 1962 1766 2446 1372 2446 c 2
 983 2446 l 1
 983 2458 l 1
 1516 2458 l 2
 2258 2458 2601 2130 2601 1598 c 0
 2601 1066 2258 738 1516 738 c 2
EndSplineSet
Validated: 5
EndChar

StartChar: Dcroat
Encoding: 272 272 320
GlifName: D_croat
Width: 3102
Flags: HMW
LayerCount: 2
Fore
SplineSet
440 3072 m 1
 1075 3072 l 1
 1075 0 l 1
 440 0 l 1
 440 3072 l 1
1382 0 m 2
 72 0 l 1
 72 12 l 1
 1382 12 l 2
 2013 12 2222 729 2222 1536 c 0
 2222 2343 1971 3060 1382 3060 c 2
 72 3060 l 1
 72 3072 l 1
 1382 3072 l 2
 2357 3072 2939 2449 2939 1536 c 0
 2939 623 2316 0 1382 0 c 2
73.5 1498 m 1
 1493.5 1498 l 1
 1493.5 1490 l 1
 73.5 1490 l 1
 73.5 1498 l 1
EndSplineSet
Validated: 524293
EndChar

StartChar: Lslash
Encoding: 321 321 324
GlifName: L_slash
Width: 2518
Flags: HMW
LayerCount: 2
Fore
SplineSet
62 1474 m 1
 1679 2376 l 1
 1679 2362 l 1
 62 1460 l 1
 62 1474 l 1
EndSplineSet
Refer: 23 76 N 1 0 0 1 0 0 2
Validated: 5
EndChar

StartChar: lslash
Encoding: 322 322 325
GlifName: lslash
Width: 1391
VWidth: 4730
Flags: HMW
LayerCount: 2
Fore
SplineSet
40 1556 m 1
 1413 2376 l 1
 1413 2364 l 1
 40 1544 l 1
 40 1556 l 1
EndSplineSet
Refer: 49 108 N 1 0 0 1 0 0 2
Validated: 5
EndChar

StartChar: eth
Encoding: 240 240 329
GlifName: eth
Width: 2497
VWidth: 4730
Flags: HMW
LayerCount: 2
Fore
SplineSet
532 2580 m 1
 2355 2580 l 1
 2355 2568 l 1
 532 2568 l 1
 532 2580 l 1
2293 1270 m 0
 2293 410 1851 -40 1192 -40 c 0
 533 -40 122 410 122 1024 c 0
 122 1720 626 2018 1081 2018 c 0
 1517 2018 1630 1646 1630 1146 c 1
 1618 1146 l 1
 1618 1684 1469 1970 1192 1970 c 0
 930 1970 798 1675 798 1024 c 0
 798 455 857 -28 1180 -28 c 0
 1503 -28 1618 495 1618 1146 c 1
 1620 1339 l 1
 1620 2103 1163 3106 430 3106 c 1
 430 3112 l 1
 1485 3112 2293 2303 2293 1270 c 0
EndSplineSet
Validated: 5
EndChar

StartChar: OE
Encoding: 338 338 330
GlifName: O_E_
Width: 4064
Flags: HMW
LayerCount: 2
Fore
SplineSet
1649 3060 m 1025,0,0
880 1536 m 0,0,0
 880 729 1079 12 1649 12 c 1,0,0
 1566 0 l 1,0,0
 734 0 164 622 164 1536 c 0,0,0
 164 2450 734 3072 1566 3072 c 1,0,0
 1649 3060 l 1,0,0
 1079 3060 880 2343 880 1536 c 0,0,0
EndSplineSet
Refer: 16 69 N 1 0 0 1 1496 0 2
Validated: 5
EndChar

StartChar: germandbls
Encoding: 223 223 332
GlifName: germandbls
Width: 3157
VWidth: 4730
Flags: HMW
LayerCount: 2
Fore
SplineSet
1650 1654 m 1
 1650 1662 l 1
 2096 1662 2211 2076 2211 2338 c 0
 2211 2632 2098 3098 1692 3098 c 0
 1185 3098 1044 2552 1044 1970 c 2
 1044 0 l 1
 430 0 l 1
 430 2012 l 2
 430 2761 1044 3112 1712 3112 c 0
 2298 3112 2871 2822 2871 2380 c 0
 2871 1929 2474 1654 1650 1654 c 1
62 12 m 1
 1413 12 l 1
 1413 0 l 1
 62 0 l 1
 62 12 l 1
2994 717 m 0
 2994 225 2528 -40 2032 -40 c 0
 1660 -40 1385 222 1385 639 c 0
 1385 868 1555 987 1740 987 c 0
 1903 987 2064 885 2064 676 c 0
 2064 483 1887 368 1728 368 c 0
 1567 368 1427 477 1399 616 c 1
 1409 223 1679 -18 1970 -18 c 0
 2273 -18 2335 394 2335 656 c 0
 2335 1042 2260 1654 1650 1654 c 1
 1650 1662 l 1
 2638 1662 2994 1249 2994 717 c 0
EndSplineSet
Validated: 5
EndChar

StartChar: circumflex
Encoding: 710 710 335
GlifName: circumflex
Width: 1740
Flags: HMW
LayerCount: 2
Fore
SplineSet
868 2867 m 1
 208 2595 l 1
 204 2601 l 1
 697 3154 l 1
 1045 3154 l 1
 1536 2601 l 1
 1532 2595 l 1
 868 2867 l 1
EndSplineSet
Validated: 1
EndChar

StartChar: caron
Encoding: 711 711 336
GlifName: caron
Width: 1740
Flags: HMW
LayerCount: 2
Fore
SplineSet
870 2928 m 1
 1530 3198 l 1
 1536 3194 l 1
 1045 2642 l 1
 697 2642 l 1
 204 3194 l 1
 210 3198 l 1
 870 2928 l 1
EndSplineSet
Validated: 1
EndChar

StartChar: pi
Encoding: 960 960 337
GlifName: pi
Width: 2583
VWidth: 4730
Flags: HMW
LayerCount: 2
Fore
SplineSet
2441 422 m 1
 2347 136 2195 -40 1896 -40 c 0
 1622 -40 1418 78 1418 340 c 2
 1418 1720 l 1
 1991 1720 l 1
 1991 315 l 2
 1991 233 2032 153 2151 153 c 0
 2259 153 2349 223 2431 428 c 1
 2441 422 l 1
508 -40 m 0
 299 -40 164 74 164 238 c 0
 164 619 807 438 807 1142 c 2
 807 1844 l 1
 1036 1844 l 1
 1036 996 l 2
 1036 348 848 -40 508 -40 c 0
2359 1884 m 1
 2359 1311 l 1
 180 1311 l 1
 180 1003 l 1
 168 1003 l 1
 168 1884 l 1
 2359 1884 l 1
EndSplineSet
Validated: 5
EndChar

StartChar: uni1E9E
Encoding: 7838 7838 338
GlifName: uni1E_9E_
Width: 3649
VWidth: 4730
Flags: HMW
LayerCount: 2
Fore
SplineSet
62 12 m 1
 1454 12 l 1
 1454 0 l 1
 62 0 l 1
 62 12 l 1
2515 1635 m 1
 2308.01775065 1666.34170338 2081.73598728 1693.78355608 1876 1700 c 1
 2886 2955 l 1
 2761 3010 2496 3100 2162 3100 c 0
 1368 3100 1086 2532 1086 1766 c 2
 1086 0 l 1
 430 0 l 1
 430 1806 l 2
 430 2679 1187 3112 2162 3112 c 0
 2788 3112 3220 2843 3363 2687 c 1
 2515 1635 l 1
1430 596 m 1
 1467 268 1788 -8 2237 -8 c 0
 2674 -8 2816 372 2816 819 c 0
 2816 1184 2671 1688 1876 1688 c 1
 1876 1700 l 1
 3129 1700 3486 1320 3486 829 c 0
 3486 276 2979 -40 2360 -40 c 0
 1717 -40 1413 325 1413 660 c 0
 1413 889 1567 1039 1772 1039 c 0
 1956 1039 2095 907 2095 698 c 0
 2095 505 1929 368 1749 368 c 0
 1592 368 1469 489 1430 596 c 1
EndSplineSet
Validated: 524293
EndChar

StartChar: uni203D
Encoding: 8253 8253 339
GlifName: uni203D_
Width: 2702
Flags: HMW
LayerCount: 2
Fore
SplineSet
1663 2126 m 0
 1617 1732 1323 1281 1323 995 c 1
 1315 995 l 1
 1315 1281 1103 1732 1057 2126 c 0
 1053 2154 1053 2180 1053 2204 c 0
 1053 2318 1127 2511 1360 2511 c 0
 1593 2511 1667 2318 1667 2204 c 0
 1667 2180 1667 2154 1663 2126 c 0
266 2277 m 0
 266 2653 672 3112 1397 3112 c 0
 2015 3112 2539 2805 2539 2252 c 0
 2539 1719 1918 1372 1381 1372 c 1
 1381 1384 l 1
 1717 1395 2003 1854 2003 2294 c 0
 2003 2680 1749 3074 1303 3074 c 0
 716 3074 326 2672 297 2358 c 1
 325 2456 439 2560 602 2560 c 0
 782 2560 897 2397 897 2253 c 0
 897 2028 725 1921 582 1921 c 0
 419 1921 266 2048 266 2277 c 0
EndSplineSet
Refer: 1 46 N 1 0 0 1 775 0 2
Validated: 5
EndChar

StartChar: R.alt
Encoding: 65536 -1 340
GlifName: R_.alt
Width: 2979
Flags: HMW
LayerCount: 2
Fore
SplineSet
1505 1572 m 2
 809 1572 l 1
 809 1582 l 1
 1403 1582 l 2
 1797 1582 1997 1827 1997 2314 c 0
 1997 2801 1797 3060 1403 3060 c 2
 72 3060 l 1
 72 3072 l 1
 1505 3072 l 2
 2185 3072 2652 2846 2652 2314 c 0
 2652 1782 2226 1572 1505 1572 c 2
72 12 m 1
 1526 12 l 1
 1526 0 l 1
 72 0 l 1
 72 12 l 1
481 3072 m 1
 1116 3072 l 1
 1116 0 l 1
 481 0 l 1
 481 3072 l 1
2939 0 m 1
 2873 0 2637 0 2489 0 c 0
 1412 0 2390 1572 1383 1572 c 2
 809 1572 l 1
 809 1582 l 1
 1711 1582 l 2
 3095 1582 2271 12 2795 12 c 0
 2881 12 2881 12 2939 12 c 1
 2939 0 l 1
EndSplineSet
Validated: 5
EndChar

StartChar: J.alt
Encoding: 65537 -1 341
GlifName: J_.alt
Width: 2593
Flags: HMW
LayerCount: 2
Fore
SplineSet
977 3072 m 1
 2533 3072 l 1
 2533 3060 l 1
 977 3060 l 1
 977 3072 l 1
1489 3072 m 1
 2123 3072 l 1
 2123 921 l 1
 2000 347 1657 -81 936 -81 c 0
 395 -81 72 308 72 676 c 0
 72 991 285 1168 510 1168 c 0
 715 1168 883 1031 883 792 c 0
 883 587 712 419 492 419 c 0
 288 419 135 518 94 639 c 1
 123 250 469 -61 895 -61 c 0
 1329 -61 1489 327 1489 901 c 2
 1489 3072 l 1
EndSplineSet
Validated: 5
EndChar

StartChar: four.alt
Encoding: 65538 -1 342
GlifName: four.alt
Width: 2682
VWidth: 4730
Flags: HMW
LayerCount: 2
Fore
SplineSet
2416 12 m 1
 2416 0 l 1
 1086 0 l 1
 1086 12 l 1
 2416 12 l 1
2110 2040 m 1
 2110 -4 l 1
 1474 -4 l 1
 1474 1856 l 1
 1658 1856 1987 1959 2110 2040 c 1
80 786 m 1
 2478 786 l 1
 2478 776 l 1
 62 776 l 1
 636 1596 1269 2458 1351 3072 c 1
 2040 3072 l 1
 1962 2376 658 1580 80 786 c 1
EndSplineSet
Validated: 5
EndChar

StartChar: fj.lig
Encoding: 65539 -1 343
GlifName: fj.lig
Width: 2502
VWidth: 4730
Flags: HMW
LayerCount: 2
Fore
SplineSet
51 12 m 1
 1352 12 l 1
 1352 0 l 1
 51 0 l 1
 51 12 l 1
2191 -50 m 2
 2191 -586 1876 -1064 1303 -1064 c 0
 930 -1064 676 -863 676 -588 c 0
 676 -379 827 -241 1011 -241 c 0
 1175 -241 1343 -340 1343 -545 c 0
 1343 -750 1186 -857 1003 -857 c 0
 847 -857 734 -752 699 -639 c 1
 721 -871 956 -1046 1261 -1046 c 0
 1691 -1046 1618 -438 1618 82 c 2
 1618 1872 l 1
 51 1872 l 1
 51 1884 l 1
 2191 1884 l 1
 2191 -50 l 2
2152 2751 m 1
 2097 2921 1920 3098 1533 3098 c 0
 1103 3098 972 2732 972 2212 c 2
 972 0 l 1
 420 0 l 1
 420 2098 l 2
 420 2696 816 3112 1533 3112 c 0
 1967 3112 2201 2879 2201 2625 c 0
 2201 2416 2071 2289 1887 2289 c 0
 1723 2289 1555 2388 1555 2593 c 0
 1555 2798 1714 2907 1880 2907 c 0
 2013 2907 2107 2829 2152 2751 c 1
EndSplineSet
Validated: 37
LCarets2: 1 0
Ligature2: "'liga' Standard Ligatures lookup 0-1" f j
EndChar

StartChar: uni2116
Encoding: 8470 8470 344
GlifName: uni2116
Width: 4693
Flags: HW
LayerCount: 2
Fore
SplineSet
3543 2334 m 0
 3543 1868 3625 1568 3826 1568 c 0
 4027 1568 4109 1868 4109 2334 c 0
 4109 2800 4027 3100 3826 3100 c 0
 3625 3100 3543 2800 3543 2334 c 0
3072 2334 m 0
 3072 2846 3392 3112 3826 3112 c 0
 4260 3112 4580 2846 4580 2334 c 0
 4580 1822 4260 1556 3826 1556 c 0
 3392 1556 3072 1822 3072 2334 c 0
EndSplineSet
Refer: 85 45 N 1 0 0 1 3088 164 2
Refer: 25 78 N 1 0 0 1 0 0 2
Validated: 5
EndChar

StartChar: Euro
Encoding: 8364 8364 345
GlifName: E_uro
Width: 2969
Flags: HW
LayerCount: 2
Fore
SplineSet
2732 2642 m 1
 2659 2834 2363 3090 1962 3090 c 0
 1372 3090 1188 2330 1188 1536 c 0
 1188 660 1417 -6 1884 -6 c 0
 2294 -6 2622 338 2724 730 c 1
 2736 730 l 1
 2630 332 2311 -40 1774 -40 c 0
 1053 -40 451 594 451 1536 c 0
 451 2396 995 3112 1880 3112 c 0
 2441 3112 2785 2757 2785 2483 c 0
 2785 2254 2634 2126 2450 2126 c 0
 2286 2126 2114 2232 2114 2457 c 0
 2114 2662 2270 2785 2450 2785 c 0
 2589 2785 2699 2698 2732 2642 c 1
EndSplineSet
Refer: 88 61 N 1 0 0 1 -122 -286 2
Validated: 524293
EndChar

